<svg xmlns="http://www.w3.org/2000/svg" version="1.1" xmlns:xlink="http://www.w3.org/1999/xlink" width="512" height="512" x="0" y="0" viewBox="0 0 60 52" style="enable-background:new 0 0 512 512" xml:space="preserve" class=""><g><g fill="#000" fill-rule="nonzero"><path d="M55 0H5a5.006 5.006 0 0 0-5 5v36a5.006 5.006 0 0 0 5 5h30v5a1 1 0 0 0 1.707.707L40 48.414l3.293 3.293A1 1 0 0 0 45 51v-5h10a5.006 5.006 0 0 0 5-5V5a5.006 5.006 0 0 0-5-5zM32.31 19.565a.532.532 0 0 1-.168-.844 2.541 2.541 0 0 0 0-3.441.532.532 0 0 1 .169-.845 2.544 2.544 0 0 0 1.316-3.18.532.532 0 0 1 .478-.716 2.543 2.543 0 0 0 2.434-2.434.532.532 0 0 1 .717-.478 2.549 2.549 0 0 0 3.18-1.317.53.53 0 0 1 .843-.168c.973.895 2.47.895 3.442 0a.531.531 0 0 1 .844.169 2.545 2.545 0 0 0 3.179 1.316.532.532 0 0 1 .717.478A2.545 2.545 0 0 0 51.9 10.54a.531.531 0 0 1 .478.715 2.543 2.543 0 0 0 1.317 3.18.532.532 0 0 1 .168.844 2.541 2.541 0 0 0 0 3.441.532.532 0 0 1-.169.845 2.544 2.544 0 0 0-1.316 3.18.532.532 0 0 1-.478.716 2.543 2.543 0 0 0-2.439 2.439.532.532 0 0 1-.717.478 2.548 2.548 0 0 0-3.18 1.317.514.514 0 0 1-.377.3.524.524 0 0 1-.466-.131 2.543 2.543 0 0 0-3.442 0 .525.525 0 0 1-.466.131.516.516 0 0 1-.378-.3 2.544 2.544 0 0 0-3.179-1.316.532.532 0 0 1-.717-.478A2.545 2.545 0 0 0 34.1 23.46a.531.531 0 0 1-.478-.715 2.543 2.543 0 0 0-1.312-3.18zm10.984 18.727-.294.294v-9.4c.134 0 .263.05.361.141a2.5 2.5 0 0 0 2.216.626 2.5 2.5 0 0 0 1.8-1.426.534.534 0 0 1 .669-.276c.304.108.626.156.949.143v10.192l-2.293-2.293a1 1 0 0 0-1.414 0zM43 48.586l-2.293-2.293a1 1 0 0 0-1.414 0L37 48.586V28.392c.323.013.645-.035.949-.143a.532.532 0 0 1 .668.275 2.5 2.5 0 0 0 1.806 1.427c.19.038.383.054.577.049v11a1 1 0 0 0 1.707.707l.293-.293zM58 41a3 3 0 0 1-3 3H45v-4.586l1-1 3.293 3.293A1 1 0 0 0 51 41V27.307c.28-.392.439-.856.459-1.337a.535.535 0 0 1 .512-.511 2.532 2.532 0 0 0 2.277-3.409.533.533 0 0 1 .276-.667 2.532 2.532 0 0 0 .8-4.022.534.534 0 0 1 0-.723 2.531 2.531 0 0 0-.8-4.021.532.532 0 0 1-.277-.667 2.532 2.532 0 0 0-2.277-3.409.535.535 0 0 1-.512-.511 2.531 2.531 0 0 0-3.408-2.279.529.529 0 0 1-.668-.275 2.532 2.532 0 0 0-4.022-.8.533.533 0 0 1-.722 0 2.531 2.531 0 0 0-4.021.8.531.531 0 0 1-.669.276 2.531 2.531 0 0 0-3.408 2.279.535.535 0 0 1-.512.511 2.532 2.532 0 0 0-2.277 3.409.533.533 0 0 1-.276.667 2.532 2.532 0 0 0-.8 4.022.534.534 0 0 1 0 .723 2.531 2.531 0 0 0 .8 4.021.532.532 0 0 1 .277.667 2.532 2.532 0 0 0 2.277 3.409c.277.012.5.234.512.511.02.48.18.944.459 1.336V44H5a3 3 0 0 1-3-3V5a3 3 0 0 1 3-3h50a3 3 0 0 1 3 3z" fill="#fc226a" opacity="1" data-original="#000000" class=""></path><path d="M11 36a3 3 0 0 1-3-3V13a3 3 0 0 1 3-3h18a1 1 0 0 0 0-2H11a5.006 5.006 0 0 0-5 5v20a5.006 5.006 0 0 0 5 5h19a1 1 0 0 0 0-2z" fill="#fc226a" opacity="1" data-original="#000000" class=""></path><path d="M12 24h14a1 1 0 0 0 0-2H12a1 1 0 0 0 0 2zM12 20h14a1 1 0 0 0 0-2H12a1 1 0 0 0 0 2zM12 16h14a1 1 0 0 0 0-2H12a1 1 0 0 0 0 2zM11.083 33.4a1 1 0 0 0 1.317.517 7.687 7.687 0 0 0 2.506-1.529 4.7 4.7 0 0 0 .705-.9c.382.43.83.794 1.329 1.08.695.454 1.56.565 2.347.3.302-.117.575-.298.8-.53.453.283.951.484 1.473.595l.756.179c1.543.452 3.146.664 4.754.63a1 1 0 1 0-.144-1.995c-1.403.018-2.8-.177-4.144-.58l-.773-.183c-.933-.215-1.173-.591-1.272-.856a1 1 0 0 0-1.934.421.505.505 0 0 1-.223.451.922.922 0 0 1-.66-.17 4.1 4.1 0 0 1-1.72-2.176 1 1 0 0 0-1.936.408 2.587 2.587 0 0 1-.774 1.907 5.933 5.933 0 0 1-1.89 1.114 1 1 0 0 0-.517 1.317zM43 25a8 8 0 1 0-8-8 8.009 8.009 0 0 0 8 8zm0-14a6 6 0 1 1 0 12 6 6 0 0 1 0-12z" fill="#fc226a" opacity="1" data-original="#000000" class=""></path></g></g></svg>