<svg xmlns="http://www.w3.org/2000/svg" version="1.1" xmlns:xlink="http://www.w3.org/1999/xlink" width="512" height="512" x="0" y="0" viewBox="0 0 512 512.001" style="enable-background:new 0 0 512 512" xml:space="preserve" class=""><g><path d="M433.11 425.098h-3.56v-9.024c11.56-8 18.587-21.172 18.587-35.41V354.27c0-.043.004-.09.004-.133v-7.297c0-2.903-.356-5.621-1.02-8.145-3.64-14.379-16.684-25.047-32.176-25.047h-19.734c-13.613 0-25.594 8.465-30.637 20.465a45.891 45.891 0 0 0-14.086-2.23h-3.558v-9.028c11.566-7.992 18.597-21.164 18.597-35.414v-33.828c0-.394-.015-.789-.03-1.18-.153-4.788-1.212-9.054-3.036-12.73-5.274-11.367-16.79-19.277-30.125-19.277h-19.734c-17.68 0-32.172 13.894-33.137 31.34-.04.605-.059 1.222-.059 1.851v7.297c0 .047.004.094.004.137v26.39c0 14.239 7.027 27.41 18.586 35.41v9.032h-3.559c-4.937 0-9.812.812-14.44 2.351-5.013-12.093-16.993-20.586-30.685-20.586h-7.984V201.473h13.309c8.988 0 16.297-7.309 16.297-16.293v-8.97c0-8.987-7.309-16.296-16.297-16.296h-10.692l13.399-44.398a7.554 7.554 0 0 0-1.504-7.11l-32.676-38.023a7.56 7.56 0 0 0-11.469 9.851l29.977 34.883-13.52 44.797h-1.125v-19.922c0-22.851-18.59-41.445-41.437-41.445h-.746V91.62c9.996-7.266 16.054-18.95 16.054-31.484V53.34c0-.035.004-.07.004-.11V23.914c0-9.012-5.011-16.875-12.398-20.95A23.724 23.724 0 0 0 176.992 0h-30.066c-13.188 0-23.918 10.73-23.918 23.918v36.215A38.813 38.813 0 0 0 139.82 92.16v6.387h-3.629c-22.847 0-41.433 18.594-41.433 41.445v19.922H66.703c-8.984 0-16.293 7.309-16.293 16.297v8.969c0 8.984 7.309 16.293 16.293 16.293H80.02v112.175H63.945c-16.613 0-30.41 12.266-32.82 28.215a32.435 32.435 0 0 0-.375 4.977v7.297c0 .047.004.09.004.136v26.395c0 14.234 7.027 27.41 18.586 35.406v9.024H45.78C20.54 425.098 0 445.64 0 470.887v24.222C0 504.422 7.578 512 16.895 512h445.101c9.316 0 16.895-7.578 16.895-16.89v-24.223c0-25.25-20.54-45.79-45.782-45.79zm-37.376-13.176a7.56 7.56 0 0 0-3.953-6.676 27.93 27.93 0 0 1-13.758-17.648c7.399 5.996 16.817 9.597 27.059 9.597 10.238 0 19.652-3.597 27.05-9.59a27.998 27.998 0 0 1-13.75 17.645 7.56 7.56 0 0 0-3.948 6.68v20.726c0 1.25-1.02 2.27-2.27 2.27h-14.16c-1.25 0-2.27-1.02-2.27-2.27zm-18.593-65.082c0-.555.03-1.117.082-1.684.843-9.195 8.722-16.386 17.988-16.386h19.734c9.965 0 18.075 8.105 18.075 18.07v7.43c-.075 15.343-12.579 27.804-27.938 27.804-15.406 0-27.941-12.535-27.941-27.937zm-64.024-28.137c0-.031-.004-.062-.004-.094-.004-.52-.039-.898-.105-1.168a7.548 7.548 0 0 0-3.84-5.414 27.99 27.99 0 0 1-13.75-17.64c7.398 5.988 16.809 9.59 27.047 9.59 10.246 0 19.66-3.602 27.058-9.598a27.952 27.952 0 0 1-13.753 17.644 7.564 7.564 0 0 0-3.958 6.676v20.742a2.268 2.268 0 0 1-2.265 2.27h-14.164a2.268 2.268 0 0 1-2.266-2.27zm-18.59-65.086c0-9.965 8.11-18.074 18.075-18.074h19.734c9.93 0 18.008 8.05 18.066 17.969 0 .035.004.07.004.105v7.297c0 15.406-12.535 27.941-27.941 27.941-15.36 0-27.863-12.46-27.938-27.804zm-41.78 151.633a7.575 7.575 0 0 0-3.95 6.68v20.726a2.27 2.27 0 0 1-2.266 2.27H232.36c-1.25 0-2.27-1.02-2.27-2.27V411.93a7.555 7.555 0 0 0-3.948-6.68 27.995 27.995 0 0 1-13.75-17.648c7.398 5.992 16.812 9.593 27.054 9.593 10.242 0 19.653-3.601 27.055-9.593a27.989 27.989 0 0 1-13.754 17.648zm-41.333 19.848c-25.242 0-45.781 20.539-45.781 45.789v24.218c0 .602.035 1.192.097 1.778h-18.203a16.71 16.71 0 0 0 .094-1.778v-24.218c0-12.938-5.516-25.336-15.133-34.02a45.707 45.707 0 0 0-30.656-11.77h-3.559v-9.019c11.567-7.988 18.598-21.16 18.598-35.414v-30.422a30.44 30.44 0 0 1 13.7-3.242h5.308c2.82 5.809 8.758 9.828 15.633 9.828h14.172c6.878 0 12.816-4.023 15.636-9.828h5.309c3.379 0 6.64.543 9.758 1.594v32.074c0 14.234 7.027 27.406 18.586 35.406v9.024zM64.457 411.93a7.555 7.555 0 0 0-3.95-6.68 27.988 27.988 0 0 1-13.75-17.645c7.4 5.993 16.813 9.59 27.052 9.59 10.242 0 19.656-3.601 27.058-9.597a27.942 27.942 0 0 1-13.758 17.648 7.56 7.56 0 0 0-3.953 6.676v20.734a2.256 2.256 0 0 1-2.152 2.266H66.727a2.268 2.268 0 0 1-2.27-2.266zm-18.586-65.09c0-9.965 8.106-18.07 18.074-18.07H83.68c.922 0 1.86.07 2.757.203 8.543 1.304 14.965 8.511 15.293 17.187.008.227.016.453.016.68v7.297c0 15.406-12.531 27.937-27.937 27.937-15.36 0-27.864-12.46-27.938-27.8zm84.79-93.227c0-.59.03-1.172.085-1.746l.012-.133c.945-9.082 8.644-16.191 17.972-16.191h19.735c9.965 0 18.07 8.105 18.074 18.07V260.914c0 15.406-12.535 27.941-27.941 27.941s-27.938-12.535-27.938-27.94v-7.298zm27.937 50.364c10.242 0 19.652-3.602 27.054-9.594a27.988 27.988 0 0 1-13.75 17.644 7.55 7.55 0 0 0-3.949 6.676v20.738c0 1.25-1.02 2.27-2.27 2.27h-14.171c-1.25 0-2.27-1.02-2.27-2.27v-20.738a7.55 7.55 0 0 0-3.949-6.676 27.988 27.988 0 0 1-13.75-17.644c7.402 5.992 16.816 9.594 27.055 9.594zm80.847 78.097c-15.406 0-27.941-12.531-27.941-27.937v-7.297c0-.348.012-.7.035-1.059.004-.05.012-.105.016-.16.023-.328.054-.66.097-1 0-.012 0-.02.004-.031 1.11-9.024 8.813-15.824 17.922-15.824h19.734c9.383 0 17.297 7.312 18.016 16.636.016.243.031.473.04.692.007.246.019.492.019.734V354.137c0 15.406-12.535 27.937-27.942 27.937zm-84.496-276.07c0-.098-.004-.191-.008-.285V98.44c4.88.891 9.946.84 14.786-.144v7.414l-.012.293c-.05 4.012-3.363 7.277-7.375 7.277-4.02 0-7.336-3.265-7.39-7.277zm23.543-76.617c-.496-3.696-3.652-6.551-7.488-6.551-3.805 0-6.95 2.816-7.473 6.48h-16.605c-3.102 0-6.07.594-8.793 1.676v-7.078c0-4.848 3.945-8.793 8.793-8.793h30.066c1.516 0 2.942.387 4.188 1.063a8.808 8.808 0 0 1 4.601 7.734v7.07c-2.277-.902-4.734-1.441-7.289-1.601zm-40.363 23.93c0-.028.004-.055.004-.087 0-4.847 3.945-8.792 8.793-8.792h30.066c4.813 0 8.73 3.886 8.79 8.683v7.012a23.84 23.84 0 0 1-12.188 20.789s-.004.004-.008.004c0 0-.004 0-.004.004-3.578 2.011-7.492 3.03-11.629 3.03-3.902 0-7.621-.913-11.055-2.722h-.003a23.772 23.772 0 0 1-12.766-21.105zm-28.254 86.675c0-14.515 11.805-26.328 26.316-26.328h5.036c3.191 8.578 11.484 14.738 21.109 14.738s17.914-6.16 21.101-14.738h2.153c14.512 0 26.32 11.813 26.32 26.328v19.922H195.8v-8.422a7.557 7.557 0 0 0-7.558-7.558 7.56 7.56 0 0 0-7.562 7.558v8.422h-39.168v-8.422c0-4.176-3.383-7.558-7.559-7.558s-7.558 3.382-7.558 7.558v8.422h-16.52zm-4.738 61.48a7.56 7.56 0 0 0 7.562-7.558 7.56 7.56 0 0 0-7.562-7.559H66.703a1.177 1.177 0 0 1-1.176-1.175v-8.97c0-.647.528-1.179 1.176-1.179h35.524c.03 0 .058.004.09.004s.058-.004.09-.004h31.46c.031 0 .059.004.09.004.027 0 .055-.004.086-.004h54.113c.028 0 .059.004.086.004.031 0 .059-.004.09-.004h31.05c.028 0 .06.004.087.004.031 0 .058-.004.09-.004h14.187c.008 0 .02.004.027.004.008 0 .016-.004.024-.004h20.844a1.18 1.18 0 0 1 1.175 1.18v8.969c0 .648-.527 1.175-1.175 1.175h-19.168a7.64 7.64 0 0 0-1.703-.199c-.586 0-1.157.07-1.704.2h-90.52a7.56 7.56 0 0 0 0 15.117h84.665v112.351c-12.078 1.227-22.387 8.965-27.09 19.813a46.008 46.008 0 0 0-12.492-1.754h-3.559v-9.031c11.559-8 18.586-21.172 18.586-35.41v-33.837c-.004-9.468-3.324-17.343-9.062-22.746-6.055-6.418-14.63-10.433-24.13-10.433H148.73c-18.3 0-33.19 14.89-33.19 33.191v33.824c0 14.239 7.03 27.41 18.585 35.41v9.032h-3.555c-5.515 0-10.91.98-15.976 2.87a33.236 33.236 0 0 0-19.453-19.065V201.473zm7.16 295.41v-12.898c0-4.175-3.387-7.558-7.563-7.558s-7.558 3.383-7.558 7.558v12.899H50.898v-12.899a7.557 7.557 0 0 0-7.558-7.558 7.557 7.557 0 0 0-7.559 7.558v12.899H16.895c-.98 0-1.774-.797-1.774-1.778v-24.218c0-16.914 13.754-30.672 30.66-30.672h5.313c2.816 5.805 8.758 9.828 15.633 9.828h14.402c.062 0 .125-.004.187-.004 6.79-.168 12.512-4.117 15.239-9.824h5.277a30.61 30.61 0 0 1 20.527 7.879c6.446 5.82 10.145 14.129 10.145 22.793v24.218c0 .98-.8 1.778-1.785 1.778zm165.637 0v-12.898a7.56 7.56 0 0 0-7.563-7.558 7.56 7.56 0 0 0-7.559 7.558v12.899h-46.277v-12.899a7.557 7.557 0 0 0-7.558-7.558 7.557 7.557 0 0 0-7.559 7.558v12.899h-18.879a1.783 1.783 0 0 1-1.785-1.778v-24.218c0-16.914 13.754-30.672 30.66-30.672h5.313c2.82 5.805 8.757 9.828 15.632 9.828h14.172c6.875 0 12.813-4.023 15.633-9.828h5.313c16.906 0 30.66 13.758 30.66 30.672a7.56 7.56 0 0 0 15.117 0c0-25.25-20.535-45.79-45.777-45.79h-3.559v-9.023c11.559-8 18.586-21.172 18.586-35.41v-31.25A30.642 30.642 0 0 1 294.437 347h5.313c2.82 5.805 8.758 9.828 15.633 9.828h14.16c6.879 0 12.816-4.023 15.633-9.828h5.312c3.973 0 7.89.773 11.532 2.25v31.414c0 14.25 7.03 27.426 18.597 35.414v9.016h-3.558c-25.25 0-45.79 20.543-45.79 45.793v24.218c0 .598.032 1.192.094 1.774h-53.43zm185.84-1.777c0 .98-.797 1.778-1.778 1.778H443.57v-12.899a7.56 7.56 0 0 0-7.558-7.558 7.56 7.56 0 0 0-7.563 7.558v12.899h-46.277v-12.899c0-4.175-3.383-7.558-7.559-7.558s-7.558 3.383-7.558 7.558v12.899h-18.887a1.78 1.78 0 0 1-1.781-1.778v-24.218c0-16.914 13.758-30.672 30.668-30.672h5.312c2.82 5.805 8.758 9.828 15.633 9.828h14.164c6.875 0 12.813-4.023 15.633-9.828h5.312c16.907 0 30.66 13.758 30.66 30.672v24.218zM460.453 12.71H304.816c-10.168 0-18.437 8.27-18.437 18.438v66.235c0 10.168 8.27 18.437 18.437 18.437h6.758v12.223c0 4 2.39 7.574 6.086 9.105a9.832 9.832 0 0 0 10.742-2.137l19.192-19.19h22.086a7.56 7.56 0 1 0 0-15.122h-22.32a14.464 14.464 0 0 0-10.294 4.266l-10.37 10.37v-.077c0-8.028-6.528-14.555-14.555-14.555h-7.32a3.325 3.325 0 0 1-3.321-3.32V31.148a3.325 3.325 0 0 1 3.32-3.32h155.633a3.328 3.328 0 0 1 3.324 3.32v66.235a3.328 3.328 0 0 1-3.32 3.32h-55.375c-4.176 0-7.559 3.383-7.559 7.559s3.383 7.558 7.559 7.558h55.375c10.168 0 18.438-8.27 18.438-18.437V31.148c-.004-10.164-8.274-18.437-18.442-18.437zm0 0" fill="#fc226a" opacity="1" data-original="#000000" class=""></path><path d="M326.441 57.102h112.387a7.56 7.56 0 0 0 7.559-7.563 7.56 7.56 0 0 0-7.559-7.559H326.441a7.56 7.56 0 0 0-7.558 7.56 7.56 7.56 0 0 0 7.558 7.562zM326.441 85.078h53.84c4.176 0 7.563-3.383 7.563-7.558s-3.387-7.56-7.563-7.56h-53.84c-4.175 0-7.558 3.384-7.558 7.56s3.383 7.558 7.558 7.558zm0 0" fill="#fc226a" opacity="1" data-original="#000000" class=""></path></g></svg>