<svg xmlns="http://www.w3.org/2000/svg" version="1.1" xmlns:xlink="http://www.w3.org/1999/xlink" width="512" height="512" x="0" y="0" viewBox="0 0 508.04 508.04" style="enable-background:new 0 0 512 512" xml:space="preserve"><g><g fill="#020202"><path d="M503.563 235.495c-.194-3.912-3.536-7.126-7.472-7.126h-86.294l14.002-31.935a7.599 7.599 0 0 0 .12-5.734l-7.169-18.403a77.092 77.092 0 0 0 11.563-5.361l17.974 11.116c3.323 1.853 6.487 1.409 9.491-1.33l17.379-19.09a7.5 7.5 0 0 0 .372-9.657l-12.906-16.572a76.06 76.06 0 0 0 3.915-10.89l20.61-4.758a7.499 7.499 0 0 0 5.803-7.687l-1.298-25.689a7.5 7.5 0 0 0-6.548-7.062l-20.985-2.656a76.025 76.025 0 0 0-4.993-10.439l11.169-17.788a7.499 7.499 0 0 0-1.343-9.57l-19.215-17.241a7.5 7.5 0 0 0-9.577-.366L421.4 30.128a77.099 77.099 0 0 0-11.042-3.911l-4.768-20.42c-.826-3.533-4.071-5.989-7.682-5.785L372.03 1.319a7.5 7.5 0 0 0-7.06 6.53l-2.685 20.797a77.028 77.028 0 0 0-10.591 5.005L333.72 22.535a7.501 7.501 0 0 0-9.491 1.33l-17.379 19.09a7.498 7.498 0 0 0-.371 9.657l12.905 16.571a76.224 76.224 0 0 0-3.173 8.425l-35.129-15.402c-4.359-1.442-7.652-.156-9.88 3.857l-29.818 68.009V17.565c0-9.697-15-9.697-15 0v32.851c-51.404 2.173-98.814 29.333-127.275 73.11-5.11 7.859 7.025 16.713 12.576 8.176 25.694-39.521 68.383-64.111 114.699-66.275V382.96h-46.245c-6.309 0-11.441-5.164-11.441-11.512v-25.715a7.502 7.502 0 0 0-3.944-6.604c-47.729-25.704-77.061-75.417-76.549-129.74a144.477 144.477 0 0 1 6.554-41.736c2.89-9.256-11.428-13.729-14.318-4.471a159.431 159.431 0 0 0-7.234 46.066c-.55 58.397 30.178 111.967 80.492 140.893v21.307c0 12.006 8.004 22.168 18.941 25.419v35.53c0 22.943 18.666 41.609 41.609 41.609h12.136v26.533c0 9.697 15 9.697 15 0V321.028l76.42 33.506-1.719 9.796a63.362 63.362 0 0 0-7.375 3.034l-13.467-9.383a7.497 7.497 0 0 0-9.593.853l-14.813 14.826a7.5 7.5 0 0 0-.844 9.594l9.396 13.458a63.386 63.386 0 0 0-3.028 7.379l-16.037 2.83a7.501 7.501 0 0 0-6.197 7.416l.086 21.035a7.502 7.502 0 0 0 6.153 7.348l16.134 2.945a64.16 64.16 0 0 0 3.116 7.477l-9.264 13.366a7.5 7.5 0 0 0 .864 9.578l14.934 14.921a7.5 7.5 0 0 0 9.579.854l13.358-9.275a64.22 64.22 0 0 0 7.479 3.109l2.96 16.132a7.5 7.5 0 0 0 7.353 6.146l21.035.066h.024a7.5 7.5 0 0 0 7.387-6.203l2.816-16.04a63.29 63.29 0 0 0 7.375-3.034l13.466 9.383a7.494 7.494 0 0 0 9.593-.853l14.813-14.826a7.5 7.5 0 0 0 .844-9.594l-9.396-13.458a63.386 63.386 0 0 0 3.028-7.379l16.037-2.83a7.502 7.502 0 0 0 6.197-7.416l-.085-21.035a7.502 7.502 0 0 0-6.153-7.348l-15.166-2.768c21.465-.096 43.265-.099 64.461-.099 2.482.466 4.774-.276 6.876-2.227l31.523-33.519a7.504 7.504 0 0 0 2.037-5.139V235.869c-.001-.126-.023-.248-.029-.374zm-24.822 7.874-17.089 18.171H354.048l17.09-18.171zm-84.637-129.206a7.639 7.639 0 0 0-3.977-4.146l-28.466-12.481c1.359-13.669 12.666-24.707 26.918-25.427 15.705-.763 29.084 11.208 29.87 26.748.644 12.74-7.454 24.196-19.333 28.173zm-7.424 22.27 8.101 20.795 8.569 21.998-29.764-13.147zm-52.591-72.781-11.893-15.271 8.932-9.812 16.595 10.263a7.503 7.503 0 0 0 8.055-.105 62.079 62.079 0 0 1 15.581-7.357 7.501 7.501 0 0 0 5.209-6.201l2.477-19.185 13.362-.675 4.398 18.837a7.503 7.503 0 0 0 5.809 5.645 62.06 62.06 0 0 1 16.243 5.749 7.503 7.503 0 0 0 8.024-.708l15.475-11.884 9.876 8.861-10.293 16.394a7.501 7.501 0 0 0 .104 8.138 61.11 61.11 0 0 1 7.386 15.436 7.5 7.5 0 0 0 6.212 5.187l19.348 2.449.664 13.143-19.003 4.387a7.5 7.5 0 0 0-5.657 5.786 61.016 61.016 0 0 1-5.792 16.101 7.503 7.503 0 0 0 .716 8.107l11.894 15.272-8.933 9.812-16.595-10.263a7.504 7.504 0 0 0-8.054.104 62.112 62.112 0 0 1-12.927 6.456l-6.742-17.307c17.784-6.289 29.842-23.635 28.867-42.911-1.203-23.801-21.66-42.183-45.607-40.971-20.086 1.015-36.336 15.499-40.344 34.189l-17.439-7.646a61.26 61.26 0 0 1 4.767-11.912 7.498 7.498 0 0 0-.715-8.108zM214.247 459.007c-14.672 0-26.609-11.937-26.609-26.609V397.96h38.745v61.047zm27.137-287.579 40.544-92.472 95.288 41.779-20.382 46.143c-1.455 4.355-.178 7.651 3.83 9.891l46.393 20.493-13.639 31.108h-25.523a7.498 7.498 0 0 0-5.463 2.361l-31.523 33.519c-1.546 1.643-2.358 6.026-2.166 8.389v69.457l-1.968-.006-85.391-37.439zm163.689 258.104-14.38 2.538a7.5 7.5 0 0 0-5.965 5.536 48.333 48.333 0 0 1-5.142 12.54 7.5 7.5 0 0 0 .321 8.086l8.43 12.076-5.934 5.939-12.084-8.42a7.5 7.5 0 0 0-8.087-.313 48.35 48.35 0 0 1-12.534 5.153 7.498 7.498 0 0 0-5.531 5.97l-2.525 14.383-8.488-.027-2.661-14.502a7.5 7.5 0 0 0-5.481-5.903 49.251 49.251 0 0 1-12.607-5.245 7.5 7.5 0 0 0-8.093.297l-11.994 8.327-6.07-6.063 8.317-12.001a7.5 7.5 0 0 0 .289-8.093 49.294 49.294 0 0 1-5.257-12.604 7.502 7.502 0 0 0-5.908-5.476l-14.504-2.648-.035-8.487 14.379-2.538a7.5 7.5 0 0 0 5.965-5.536 48.333 48.333 0 0 1 5.142-12.54 7.501 7.501 0 0 0-.32-8.086l-8.431-12.076 5.934-5.939 12.083 8.42a7.495 7.495 0 0 0 8.086.313 48.4 48.4 0 0 1 12.536-5.153 7.498 7.498 0 0 0 5.531-5.97l2.524-14.383 8.488.027 2.661 14.502a7.5 7.5 0 0 0 5.481 5.903 49.222 49.222 0 0 1 12.607 5.245 7.496 7.496 0 0 0 8.093-.297l11.993-8.327 6.07 6.063-8.317 12.001a7.5 7.5 0 0 0-.29 8.093 49.294 49.294 0 0 1 5.257 12.604 7.502 7.502 0 0 0 5.908 5.476l14.505 2.648zm67.016-51.301c-.003-7.385-.021-25.63-.021-25.63 0-9.697-15-9.697-15 0v36.939c-18.935.001-38.267.015-57.366.098l4.171-6.019a7.5 7.5 0 0 0-.863-9.578l-14.935-14.921a7.5 7.5 0 0 0-9.579-.854l-13.357 9.275a64.22 64.22 0 0 0-7.479-3.109L354.7 348.3c-.945-5.15-6.382-6.815-10.853-6.158-.123-8.33.78-51.887 0-65.254h113.222v36.555c0 9.697 15 9.697 15 0 0 0 .023-28.199.023-41.106l16.5-17.544v105.892z" fill="#fc226a" opacity="1" data-original="#020202"></path><path d="m337.085 390.995-.111-.001c-9.053 0-17.549 3.516-23.933 9.905-6.41 6.416-9.92 14.958-9.883 24.053.037 9.075 3.603 17.615 10.041 24.047s14.98 9.99 24.055 10.019h.111c9.053 0 17.55-3.516 23.934-9.905 6.41-6.416 9.92-14.958 9.883-24.053-.037-9.074-3.603-17.614-10.04-24.046-6.44-6.432-14.983-9.99-24.057-10.019zm13.601 47.516c-3.564 3.567-8.322 5.562-13.386 5.507-5.088-.016-9.883-2.016-13.5-5.63-3.618-3.615-5.622-8.408-5.643-13.496-.021-5.068 1.931-9.823 5.495-13.391a18.666 18.666 0 0 1 13.385-5.507c5.088.017 9.883 2.016 13.501 5.631 3.618 3.614 5.622 8.407 5.642 13.495.021 5.069-1.93 9.823-5.494 13.391zM101.695 86.327c6.296 0 9.756-8.35 5.304-12.803L81.425 47.946c-6.856-6.858-17.464 3.749-10.607 10.605L96.391 84.13a7.478 7.478 0 0 0 5.304 2.197zM47.888 204.487H11.722c-9.697 0-9.697 15 0 15h36.167c9.697 0 9.697-15-.001-15zM98.679 338.897l-25.573 25.578c-6.857 6.857 3.751 17.464 10.607 10.605l25.573-25.578c6.857-6.857-3.751-17.463-10.607-10.605z" fill="#fc226a" opacity="1" data-original="#020202"></path></g></g></svg>