<svg xmlns="http://www.w3.org/2000/svg" version="1.1" xmlns:xlink="http://www.w3.org/1999/xlink" width="512" height="512" x="0" y="0" viewBox="0 0 480.852 480.852" style="enable-background:new 0 0 512 512" xml:space="preserve" class=""><g><path d="M347.786 171.36v-2.08c-2.05-27.072-24.61-47.994-51.76-48-3.965.062-7.91.572-11.76 1.52-16.87-31.061-55.726-42.564-86.786-25.694a63.998 63.998 0 0 0-25.694 25.694 52.65 52.65 0 0 0-12-1.52c-28.701.044-51.956 23.299-52 52v4c-17.673 13.255-21.255 38.327-8 56a40 40 0 0 0 32 16h58.48l22 58.8a8 8 0 0 0 7.52 5.2h48c40.529.041 74.591-30.435 79.04-70.72v-2.88a44.08 44.08 0 0 0 16.96-34.4 43.998 43.998 0 0 0-16-33.92zm-122.48 125.92-18-48h22.96l18 48h-22.96zm42.48 0h-2.48l-6-16h50.64a63.36 63.36 0 0 1-42.16 16zm55.12-32h-69.6l-6-16h72.48a44.757 44.757 0 0 0 9.84-1.12 66.367 66.367 0 0 1-6.72 17.12zm20.123-44.442a28 28 0 0 1-23.242 12.442h-76c-15.464 0-28-12.536-28-28s12.536-28 28-28v-16c-24.282.044-43.956 19.718-44 44a43.597 43.597 0 0 0 10.08 28h-22.08c0-22.091-17.909-40-40-40v16c13.255 0 24 10.745 24 24h-40c-13.255 0-24-10.745-24-24s10.745-24 24-24v-16a39.95 39.95 0 0 0-8 .8c1.662-18.623 17.303-32.874 36-32.8a35.498 35.498 0 0 1 12.96 2.4 36.389 36.389 0 0 1 13.04 8.88 38.961 38.961 0 0 0-6 20.72h16c0-13.255 10.745-24 24-24v-16a40 40 0 0 0-23.2 7.52 52.406 52.406 0 0 0-9.92-8c13.675-22.71 43.171-30.035 65.881-16.36a48 48 0 0 1 23.239 40.84h16a62.044 62.044 0 0 0-2-15.52 37.91 37.91 0 0 1 6-.48c19.851 0 35.956 16.069 36 35.92v2.16a7.999 7.999 0 0 0 3.52 6.64c12.857 8.592 16.314 25.98 7.722 38.838z" fill="#fc226a" opacity="1" data-original="#000000"></path><path d="M275.786 169.28v16c13.255 0 24 10.745 24 24h16c0-22.091-17.908-40-40-40zM461.066 33.28A30.96 30.96 0 0 1 435.786 8a8 8 0 0 0-16 0 30.96 30.96 0 0 1-25.28 25.28 8 8 0 0 0 0 16 30.96 30.96 0 0 1 25.28 25.28 8 8 0 0 0 16 0 30.96 30.96 0 0 1 25.28-25.28 8 8 0 0 0 0-16zm-33.28 19.44a45.757 45.757 0 0 0-11.44-11.44 45.757 45.757 0 0 0 11.44-11.44 45.757 45.757 0 0 0 11.44 11.44 45.774 45.774 0 0 0-11.44 11.44zM85.066 401.28A30.96 30.96 0 0 1 59.786 376a8 8 0 0 0-16 0 30.96 30.96 0 0 1-25.28 25.28 8 8 0 0 0-6.72 8 8 8 0 0 0 6.72 8 30.96 30.96 0 0 1 25.28 25.28 8 8 0 0 0 16 0 30.96 30.96 0 0 1 25.28-25.28 8 8 0 0 0 0-16zm-33.28 19.44a45.757 45.757 0 0 0-11.44-11.44 45.757 45.757 0 0 0 11.44-11.44 45.757 45.757 0 0 0 11.44 11.44 45.774 45.774 0 0 0-11.44 11.44zM384.826 297.28c-2.72 4.32-5.52 8.56-8.56 12.72l12.88 9.44c3.28-4.48 6.64-9.12 9.28-14.16l-13.6-8zM366.666 322c-3.28 3.76-6.88 7.52-10.56 11.12l11.2 11.44c4-3.84 7.84-7.92 11.44-12.08L366.666 322zM420.106 145.36l-15.68 4.24c1.44 4.96 2.64 9.92 3.68 14.88l16-3.12c-1.12-5.44-2.4-10.88-4-16zM398.586 269.92c-1.92 4.64-4 9.36-6.32 14l14.32 7.12c2.48-4.96 5.2-9.76 6.8-15.2l-14.8-5.92zM344.026 38.48l-9.28 13.04c4.16 2.96 8 6.16 12.08 9.44l10.32-12.24c-4.16-3.52-8.56-6.96-13.12-10.24zM390.426 85.6l-12.64 9.12c2.96 4.16 5.84 8.48 8 12.88l13.76-8c-2.8-4.8-5.84-9.44-9.12-14zM369.386 60.08l-11.36 11.28c3.68 3.6 7.12 7.36 10.4 11.28l12.24-10.32c-3.52-4.24-7.36-8-11.28-12.24zM407.866 114l-14.4 7.28c2.16 4.64 4.24 9.36 6.08 14.08l14.88-6.08c-1.92-5.12-4.16-10.32-6.56-15.28zM407.226 240.64c-1.04 4.96-2.4 10-3.84 14.8l15.28 4.72c1.92-5.28 3.36-10.88 4.56-16.16l-16-3.36zM426.426 177.76l-16 1.84c.64 5.04.96 10.24 1.2 15.36l16-.56c.16-5.6-.56-11.12-1.2-16.64zM411.786 210.24c0 5.12-.72 10.24-1.36 15.28l16 2.08c.32-5.44.88-11.04 1.36-16.56l-16-.8zM43.786 212l-16 .96c0 5.52.88 11.12 1.68 16.56l16-2.24c-.56-5.04-1.04-10-1.68-15.28zM315.786 21.44l-6.96 14.4c4.56 2.24 9.12 4.72 13.44 7.28l8-13.76c-4.88-2.8-9.84-5.44-14.48-7.92zM48.346 242.48l-15.6 3.6c1.28 5.36 2.72 10.8 4.4 16l15.28-4.8c-1.6-4.88-2.88-9.84-4.08-14.8zM28.746 179.36c-.4 5.92-.96 11.36-.96 16.96h16c0-5.04.4-10.24.96-15.28l-16-1.68zM71.706 298.72l-13.6 8.48c2.88 4.64 6.08 9.28 9.44 13.76l12.8-9.6c-3.04-4.08-6-8-8.64-12.64zM35.466 146.96c-1.68 5.36-3.04 10.8-4.08 16.24l16 3.04c.96-5.04 2.16-10 3.52-14.96l-15.44-4.32zM90.026 323.28l-12 10.56c3.68 4.16 8 8 11.6 12l11.04-11.52c-3.68-3.52-7.28-7.28-10.64-11.04zM46.906 115.84c-2.4 5.44-4.56 10.16-6.48 15.28l14.96 5.68c1.867-4.8 3.867-9.52 6-14.16l-14.48-6.8zM112.186 344.08l-10.08 12.8c4.24 3.44 8.8 6.8 13.36 9.92l8.96-13.52c-4.16-2.88-8-6-12.24-9.2zM137.466 361.6l-7.84 14c4.8 2.64 9.76 5.2 14.88 7.52l6.64-14.48c-4.64-2.16-9.2-4.48-13.68-7.04zM319.546 360.56c-4.4 2.48-8.96 4.88-13.6 7.12l6.88 14.72c5.04-2.4 10-5.04 14.72-8l-8-13.84zM57.626 271.52l-14.72 6.08c2.08 5.12 4.4 10.24 6.96 15.12l14.24-7.28a237.144 237.144 0 0 1-6.48-13.92zM63.386 86.96c-2.96 4.56-5.92 9.36-8.72 14.08l13.84 8c2.56-4.32 5.36-8.72 8-12.88l-13.12-9.2zM84.906 61.36c-3.92 4-8 8-11.2 12.4l12.32 10.16c3.28-3.84 6.72-7.68 10.32-11.36l-11.44-11.2zM110.026 39.6c-4.48 3.28-8.8 6.72-13.04 10.32l10.8 12.16c3.84-3.36 8-6.56 12-9.6l-9.76-12.88zM201.946 2.96a164.949 164.949 0 0 0-16.48 2.8l3.44 15.6c4.96-1.04 10-1.92 15.04-2.56l-2-15.84zM169.386 9.92c-5.28 1.6-10.56 3.52-16 5.52l6 14.88c4.72-1.84 9.6-3.6 14.4-5.04l-4.4-15.36zM218.506 1.28l.72 16h15.36l.56-16h-16.64zM284.346 9.28l-4.48 15.28c4.88 1.52 9.76 3.12 14.48 4.96l5.44-14.72c-4.8-2-10.08-3.84-15.44-5.52zM251.786 2.72l-1.92 16c5.04.64 10.08 1.44 15.12 2.48l3.2-16c-5.44-.96-10.96-1.84-16.4-2.48zM138.426 22.24c-4.88 2.48-9.76 5.2-14.56 8l8 13.68a182.654 182.654 0 0 1 13.44-7.44l-6.88-14.24zM344.746 343.36c-3.92 3.2-8 6.32-12.24 9.2l9.12 13.2c4.56-3.2 9.04-6.56 13.28-10.08l-10.16-12.32z" fill="#fc226a" opacity="1" data-original="#000000"></path><path d="M362.499 114.996A160.037 160.037 0 0 0 334.426 82C268.81 22.814 167.638 28.027 108.452 93.643s-53.973 166.788 11.643 225.974a160.025 160.025 0 0 0 21.212 16.143 49.04 49.04 0 0 1 22.48 41.52v40c.019 14.853 10.256 27.741 24.72 31.12 4.173 21.694 25.141 35.897 46.835 31.725a40.001 40.001 0 0 0 31.725-31.725c14.464-3.379 24.701-16.267 24.72-31.12v-40a48.72 48.72 0 0 1 22.16-41.28c74.435-47.621 96.173-146.568 48.552-221.004zM227.786 465.28a24.002 24.002 0 0 1-22.64-16h45.28a24 24 0 0 1-22.64 16zm32-32h-64c-8.837 0-16-7.163-16-16h96c0 8.837-7.163 16-16 16zm16-32h-96v-16h96v16zm59.241-104.024a143.968 143.968 0 0 1-29.641 25.224h-.08a64 64 0 0 0-29.04 46.8h-16.48v-40h-16v40h-32v-48h-16v48h-16.48a64.721 64.721 0 0 0-29.36-46.96c-66.823-43.123-86.035-132.252-42.912-199.074A144.002 144.002 0 0 1 211.146 58.32a149.03 149.03 0 0 1 16.64-1.04 142.236 142.236 0 0 1 96 36.64c59.254 53.046 64.287 144.083 11.241 203.336z" fill="#fc226a" opacity="1" data-original="#000000"></path></g></svg>