<svg xmlns="http://www.w3.org/2000/svg" version="1.1" xmlns:xlink="http://www.w3.org/1999/xlink" width="512" height="512" x="0" y="0" viewBox="0 0 512 512" style="enable-background:new 0 0 512 512" xml:space="preserve" class=""><g><path d="m489.146 308.276-30.242-54.158a9.205 9.205 0 0 0-.285-.476 48.009 48.009 0 0 0-3.274-4.477V117.451c0-4.971-4.029-9-9-9s-9 4.029-9 9v117.717a51.063 51.063 0 0 0-7.022-2.72 49.825 49.825 0 0 0-4.04-1.028 46.434 46.434 0 0 0 6.044-22.945c0-25.771-20.966-46.736-46.736-46.736s-46.736 20.966-46.736 46.736c0 23.009 16.718 42.174 38.641 46.02-2.073 4.347-3.652 9.572-4.167 15.78l-1.683 20.273-29.628-42.701a8.999 8.999 0 0 0-7.395-3.869H177.377a9 9 0 0 0-7.395 3.869l-29.628 42.701-1.683-20.273c-.515-6.208-2.094-11.432-4.167-15.78 21.924-3.846 38.641-23.011 38.641-46.02 0-25.771-20.966-46.736-46.736-46.736s-46.736 20.966-46.736 46.736a46.432 46.432 0 0 0 6.044 22.945 49.922 49.922 0 0 0-4.04 1.027 50.935 50.935 0 0 0-7.022 2.72V60.359C74.656 49.133 83.789 40 95.015 40h321.97c11.226 0 20.359 9.133 20.359 20.359v22.092c0 4.971 4.029 9 9 9s9-4.029 9-9V60.359c0-21.151-17.208-38.359-38.359-38.359H95.015c-21.151 0-38.359 17.208-38.359 38.359v188.807a47.877 47.877 0 0 0-3.274 4.477c-.1.155-.195.314-.285.476l-30.242 54.158c-6.581 10.93-7.652 25.423-2.936 39.797 4.453 13.57 13.297 25.183 24.265 31.859a9.004 9.004 0 0 0 4.68 1.313h28.562l-36.622 52.781a8.998 8.998 0 0 0 7.394 14.131H99.69c4.971 0 9-4.029 9-9s-4.029-9-9-9H65.396l54.075-77.934c1.378.221 2.78.345 4.197.345h55.945c14.676 0 26.615-11.94 26.615-26.616s-11.939-26.615-26.615-26.615h-23.447l25.921-37.358h147.826l25.921 37.358h-23.447c-14.676 0-26.615 11.939-26.615 26.615s11.939 26.616 26.615 26.616h55.945c1.417 0 2.819-.125 4.197-.345l54.075 77.934H324.931c-8.245-15.762-21.728-28.363-38.134-35.469 9.761-8.572 15.939-21.129 15.939-35.11 0-25.77-20.966-46.735-46.736-46.735s-46.736 20.966-46.736 46.735c0 13.981 6.179 26.538 15.939 35.11-16.406 7.106-29.888 19.707-38.134 35.469H134.69c-4.971 0-9 4.029-9 9s4.029 9 9 9h45.661a77.615 77.615 0 0 0-2.106 17.912V481a9 9 0 0 0 9 9h137.51a9 9 0 0 0 9-9v-14.931c0-6.166-.743-12.157-2.106-17.912h132.153a8.999 8.999 0 0 0 7.394-14.131l-36.622-52.781h28.562c1.651 0 3.27-.454 4.68-1.313 10.968-6.677 19.813-18.289 24.265-31.859 4.717-14.374 3.645-28.867-2.935-39.797zM126.41 179.739c15.845 0 28.736 12.891 28.736 28.736s-12.891 28.736-28.736 28.736-28.736-12.891-28.736-28.736 12.89-28.736 28.736-28.736zm61.819 146.213c0 4.751-3.865 8.616-8.615 8.616h-55.945a8.629 8.629 0 0 1-6.746-3.257l-19.002-36.334a9 9 0 1 0-15.95 8.341l15.291 29.237-2.717 24.015-4.63 6.673H51.579c-13.047-9.506-21.724-31.852-13.255-45.764.058-.097.115-.193.17-.292l30.175-54.038c8.075-12.334 26.143-19.68 40.391-11.008.219.133.443.257.672.37.098.049 9.842 5.271 11.002 19.25l3.097 37.317a9 9 0 0 0 8.969 8.256h46.813c4.751.003 8.616 3.868 8.616 8.618zm39.035 33.626c0-15.845 12.891-28.735 28.736-28.735s28.736 12.891 28.736 28.735c0 15.846-12.891 28.736-28.736 28.736s-28.736-12.89-28.736-28.736zM315.755 472h-119.51v-5.931c0-32.949 26.806-59.755 59.755-59.755s59.755 26.806 59.755 59.755zm41.099-263.524c0-15.846 12.891-28.736 28.736-28.736s28.736 12.891 28.736 28.736-12.891 28.736-28.736 28.736-28.736-12.891-28.736-28.736zm103.567 154.769h-38.335l-4.63-6.673-2.717-24.015 15.291-29.237a8.999 8.999 0 0 0-3.804-12.146 8.998 8.998 0 0 0-12.146 3.805l-19.002 36.334a8.622 8.622 0 0 1-2.981 2.388l-.029.014a8.608 8.608 0 0 1-3.735.855h-55.945c-4.75 0-8.615-3.865-8.615-8.616 0-4.75 3.865-8.615 8.615-8.615H379.2a9 9 0 0 0 8.969-8.256l3.097-37.317c1.113-13.413 10.146-18.769 11.054-19.273.268-.126.345-.18.62-.347 14.248-8.675 32.316-1.326 40.391 11.008l30.175 54.038c.055.099.112.195.17.292 8.469 13.91-.208 36.255-13.255 45.761zm-83.585-233.48.76-5.063-53.047 46.659c-4.101 3.606-10.335 3.257-14.006-.785l-36.768-40.477-60.244 45.573a9.966 9.966 0 0 1-6.026 2.025 9.981 9.981 0 0 1-7.982-3.968c-3.332-4.404-2.462-10.677 1.942-14.009l67.533-51.087a10 10 0 0 1 13.435 1.252l36.296 39.957 46.31-40.732h-7.513c-5.523 0-10-4.478-10-10s4.477-10 10-10h34.023a10.002 10.002 0 0 1 9.89 11.485l-4.825 32.139c-.744 4.958-5.01 8.517-9.877 8.517-.494 0-.994-.036-1.497-.111-5.461-.822-9.223-5.913-8.404-11.375zM111.45 76.867a9 9 0 0 1 9-9h89.217c4.971 0 9 4.029 9 9s-4.029 9-9 9H120.45a9 9 0 0 1-9-9zm0 38.206a9 9 0 0 1 9-9h89.217c4.971 0 9 4.029 9 9s-4.029 9-9 9H120.45a9 9 0 0 1-9-9z" fill="#fc226a" opacity="1" data-original="#000000" class=""></path></g></svg>