<svg xmlns="http://www.w3.org/2000/svg" version="1.1" xmlns:xlink="http://www.w3.org/1999/xlink" width="512" height="512" x="0" y="0" viewBox="0 0 32 32" style="enable-background:new 0 0 512 512" xml:space="preserve" fill-rule="evenodd"><g><path d="M11 28a2.5 2.5 0 0 0-2.5-2.5h-3A2.5 2.5 0 0 0 3 28v1.5a.5.5 0 0 0 .5.5h7a.5.5 0 0 0 .5-.5zm18 0a2.5 2.5 0 0 0-2.5-2.5h-3A2.5 2.5 0 0 0 21 28v1.5a.5.5 0 0 0 .5.5h7a.5.5 0 0 0 .5-.5zm-9 0a2.5 2.5 0 0 0-2.5-2.5h-3A2.5 2.5 0 0 0 12 28v1.5a.5.5 0 0 0 .5.5h7a.5.5 0 0 0 .5-.5zm-10 0v1H4v-1a1.5 1.5 0 0 1 1.5-1.5h3A1.5 1.5 0 0 1 10 28zm18 0v1h-6v-1a1.5 1.5 0 0 1 1.5-1.5h3A1.5 1.5 0 0 1 28 28zm-9 0v1h-6v-1a1.5 1.5 0 0 1 1.5-1.5h3A1.5 1.5 0 0 1 19 28zm-9.5-5.452A2.546 2.546 0 0 0 7.002 19.5h-.004A2.546 2.546 0 0 0 4.5 22.548l.267 1.335A2.011 2.011 0 0 0 6.74 25.5h.52c.96 0 1.785-.677 1.973-1.617l.267-1.335zm18 0a2.546 2.546 0 0 0-2.498-3.048h-.004a2.546 2.546 0 0 0-2.498 3.048l.267 1.335A2.011 2.011 0 0 0 24.74 25.5h.52c.96 0 1.785-.677 1.973-1.617l.267-1.335zm-9 0a2.546 2.546 0 0 0-2.498-3.048h-.004a2.546 2.546 0 0 0-2.498 3.048l.267 1.335A2.011 2.011 0 0 0 15.74 25.5h.52c.96 0 1.785-.677 1.973-1.617l.267-1.335zm8.02-.196-.267 1.334c-.095.473-.51.814-.992.814h-.521c-.483 0-.898-.341-.993-.814l-.267-1.334a1.547 1.547 0 0 1 1.518-1.852h.004a1.547 1.547 0 0 1 1.518 1.852zm-18 0-.267 1.334c-.095.473-.51.814-.992.814H6.74c-.483 0-.898-.341-.993-.814l-.267-1.334A1.547 1.547 0 0 1 6.998 20.5h.004a1.547 1.547 0 0 1 1.518 1.852zm9 0-.267 1.334c-.095.473-.51.814-.992.814h-.521c-.483 0-.898-.341-.993-.814l-.267-1.334a1.547 1.547 0 0 1 1.518-1.852h.004a1.547 1.547 0 0 1 1.518 1.852zm-4.026-7.603v1.738c0 .359.159.697.452.966.351.323.913.547 1.552.547h1.004c.639 0 1.201-.224 1.552-.547.293-.269.452-.607.452-.966v-1.738a4.156 4.156 0 0 0 1.548-3.249c0-2.285-1.82-4.135-4.054-4.135s-4.054 1.85-4.054 4.135c0 1.319.606 2.492 1.548 3.249zm-7.047-.473S6.31 14 5.994 14H5.5A1.503 1.503 0 0 1 4 12.5v-8A1.5 1.5 0 0 1 5.5 3h21A1.5 1.5 0 0 1 28 4.5v8a1.503 1.503 0 0 1-1.5 1.5h-.494c-.276 0-.498.367-.453.276l-1.115 2.23-1.522-2.283A.501.501 0 0 0 22.5 14H21a.5.5 0 0 0 0 1h1.232l1.852 2.777a.499.499 0 0 0 .863-.053L26.309 15h.191a2.5 2.5 0 0 0 2.5-2.5v-8A2.5 2.5 0 0 0 26.5 2h-21A2.5 2.5 0 0 0 3 4.5v8A2.5 2.5 0 0 0 5.5 15h.191l1.362 2.724a.499.499 0 0 0 .863.053L9.768 15H11a.5.5 0 0 0 0-1H9.5a.501.501 0 0 0-.416.223l-1.522 2.283-1.115-2.23zm11.059 1.063c-.466.191-.974.296-1.506.296s-1.04-.105-1.506-.296v1.148c0 .124.099.22.22.301.2.135.479.212.784.212h1.004c.305 0 .584-.077.784-.212.121-.081.22-.177.22-.301zM16 8.365c1.689 0 3.054 1.408 3.054 3.135S17.689 14.635 16 14.635s-3.054-1.408-3.054-3.135S14.311 8.365 16 8.365zm4.781.887 1.514-.833a.5.5 0 1 0-.482-.876l-1.513.832a.5.5 0 0 0 .481.877zM11.7 8.375l-1.513-.832a.5.5 0 1 0-.482.876l1.514.833a.5.5 0 0 0 .481-.877zm2.082-1.82-.912-1.552a.5.5 0 0 0-.862.507l.912 1.552a.5.5 0 1 0 .862-.507zm5.298.507.912-1.552a.5.5 0 1 0-.862-.507l-.912 1.552a.5.5 0 1 0 .862.507zM16.5 6.014V4.5a.5.5 0 0 0-1 0v1.514a.5.5 0 0 0 1 0z" fill="#fc226a" opacity="1" data-original="#000000"></path></g></svg>