<svg xmlns="http://www.w3.org/2000/svg" version="1.1" xmlns:xlink="http://www.w3.org/1999/xlink" width="512" height="512" x="0" y="0" viewBox="0 0 64 64" style="enable-background:new 0 0 512 512" xml:space="preserve" class=""><g><path d="M61.207 46.793A6.084 6.084 0 0 0 56.879 45h-2.6L50 42.434V40.05a9 9 0 0 0 4.982-7.693l1.067-1.422a9.757 9.757 0 0 0-2.965-14.325A12.251 12.251 0 0 0 47.019 15h-2.038a12.251 12.251 0 0 0-6.065 1.61 9.757 9.757 0 0 0-2.965 14.325l1.067 1.422A9 9 0 0 0 42 40.05v2.384L37.723 45H34a3 3 0 0 1-3-3v-6a1 1 0 0 0-1-1v-3a3 3 0 0 0-6 0v3a1 1 0 0 0-1 1v7a11.015 11.015 0 0 0 10 10.955V62a1 1 0 0 0 1 1h28a1 1 0 0 0 1-1V51.121a6.077 6.077 0 0 0-1.793-4.328Zm-12.179-2.61 3.182 1.91-2.116 1.587-2.524-2.525Zm-9.12-25.836A10.245 10.245 0 0 1 44.981 17h2.038a10.245 10.245 0 0 1 5.073 1.347A7.72 7.72 0 0 1 55 28.86v-1.044a6.976 6.976 0 0 0-1.176-3.882l-.992-1.489A1 1 0 0 0 51.4 22.2l-1.334 1a9.058 9.058 0 0 1-5.4 1.8H42a5.007 5.007 0 0 0-4.9 4.018 7.706 7.706 0 0 1 2.809-10.671ZM39 32v-2a3 3 0 0 1 3-3h2.667a11.071 11.071 0 0 0 6.6-2.2l.487-.365.406.608a4.987 4.987 0 0 1 .84 2.773V32a7 7 0 0 1-14 0Zm7 9a8.971 8.971 0 0 0 2-.232v1.7L46 43.8l-2-1.333v-1.7A8.971 8.971 0 0 0 46 41Zm-3.028 3.183 1.458.972-2.524 2.525-2.116-1.587ZM26 32a1 1 0 0 1 2 0v3h-2Zm35 29h-4v-7h-2v7H35v-8a1 1 0 0 0-1-1 9.01 9.01 0 0 1-9-9v-6h4v5a5.006 5.006 0 0 0 5 5h3.667l3.733 2.8a1 1 0 0 0 1.307-.093L46 46.414l3.293 3.293a1 1 0 0 0 1.307.093l3.733-2.8h2.546a4.153 4.153 0 0 1 2.914 1.207A4.094 4.094 0 0 1 61 51.121Z" fill="#fc226a" opacity="1" data-original="#000000" class=""></path><path d="M6 27h4.667l7.733 5.8a1 1 0 0 0 .6.2 1 1 0 0 0 1-1v-5h6a5.006 5.006 0 0 0 5-5V6a5.006 5.006 0 0 0-5-5H6a5.006 5.006 0 0 0-5 5v16a5.006 5.006 0 0 0 5 5ZM3 6a3 3 0 0 1 3-3h20a3 3 0 0 1 3 3v16a3 3 0 0 1-3 3h-7a1 1 0 0 0-1 1v4l-6.4-4.8a1 1 0 0 0-.6-.2H6a3 3 0 0 1-3-3Z" fill="#fc226a" opacity="1" data-original="#000000" class=""></path><path d="M14.131 7.652a3 3 0 0 1 3.985 4.475A9.944 9.944 0 0 0 15 19.134V20h2v-.866a7.965 7.965 0 0 1 2.527-5.589 5.027 5.027 0 0 0 1.341-4.71 4.95 4.95 0 0 0-3.7-3.7A5.005 5.005 0 0 0 11 10h2a2.993 2.993 0 0 1 1.131-2.348Z" fill="#fc226a" opacity="1" data-original="#000000" class=""></path><circle cx="16" cy="23" r="2" fill="#fc226a" opacity="1" data-original="#000000" class=""></circle><path d="M20 45h-4.381L12.9 39.552a1.042 1.042 0 0 0-1.79 0L8.382 45H4a3 3 0 0 0-3 3v12a3 3 0 0 0 3 3h16a3 3 0 0 0 3-3V48a3 3 0 0 0-3-3Zm1 15a1 1 0 0 1-1 1H4a1 1 0 0 1-1-1V48a1 1 0 0 1 1-1h5a1 1 0 0 0 .895-.553L12 42.235l2.105 4.212A1 1 0 0 0 15 47h5a1 1 0 0 1 1 1Z" fill="#fc226a" opacity="1" data-original="#000000" class=""></path><path d="M7 49h12v2H7zM5 53h14v2H5zM5 57h14v2H5z" fill="#fc226a" opacity="1" data-original="#000000" class=""></path></g></svg>