<svg xmlns="http://www.w3.org/2000/svg" version="1.1" xmlns:xlink="http://www.w3.org/1999/xlink" width="512" height="512" x="0" y="0" viewBox="0 0 500 500" style="enable-background:new 0 0 512 512" xml:space="preserve" class=""><g><path d="M408.884 370.373H91.119c-19.878 0-36.051-16.173-36.051-36.051v-19.186c0-19.878 16.173-36.048 36.051-36.048h317.765c19.878 0 36.048 16.17 36.048 36.048v19.186c0 19.878-16.17 36.051-36.048 36.051zM91.119 295.656c-10.743 0-19.483 8.74-19.483 19.48v19.186c0 10.743 8.74 19.483 19.483 19.483h317.765c10.74 0 19.48-8.74 19.48-19.483v-19.186c0-10.74-8.74-19.48-19.48-19.48zM250 132.941c-29.757 0-53.968-24.211-53.968-53.969C196.032 49.211 220.243 25 250 25c29.761 0 53.972 24.211 53.972 53.972 0 29.758-24.211 53.969-53.972 53.969zm0-91.373c-20.622 0-37.401 16.778-37.401 37.404 0 20.623 16.778 37.401 37.401 37.401 20.626 0 37.404-16.778 37.404-37.401 0-20.626-16.778-37.404-37.404-37.404z" fill="#fc226a" opacity="1" data-original="#000000"></path><path d="M342.489 295.656H157.511a31.921 31.921 0 0 1-24.415-11.326 31.93 31.93 0 0 1-7.129-25.955l10.727-63.949a47.133 47.133 0 0 1 46.62-39.442h34.883c4.576 0 8.284 3.708 8.284 8.284s-3.708 8.284-8.284 8.284h-34.883a30.608 30.608 0 0 0-30.278 25.618l-10.728 63.949a15.375 15.375 0 0 0 3.434 12.509 15.39 15.39 0 0 0 11.769 5.46h184.978a15.39 15.39 0 0 0 11.772-5.46 15.378 15.378 0 0 0 3.433-12.509l-10.73-63.949a30.604 30.604 0 0 0-30.276-25.618h-34.883a8.283 8.283 0 0 1-8.284-8.284 8.284 8.284 0 0 1 8.284-8.284h34.883c23.179 0 42.782 16.587 46.617 39.445l10.73 63.946a31.939 31.939 0 0 1-7.126 25.955 31.932 31.932 0 0 1-24.42 11.326z" fill="#fc226a" opacity="1" data-original="#000000"></path><path d="M241.761 295.656h-52.386a8.283 8.283 0 0 1-8.284-8.284 8.283 8.283 0 0 1 8.284-8.283h52.386c7.734 0 14.025-6.291 14.025-14.025s-6.291-14.025-14.025-14.025h-58.25a8.29 8.29 0 0 1-6.294-2.896 8.275 8.275 0 0 1-1.889-6.665l4.559-29.205a8.259 8.259 0 0 1 9.462-6.905 8.283 8.283 0 0 1 6.905 9.462l-3.065 19.642h48.571c16.869 0 30.592 13.723 30.592 30.592.001 16.868-13.722 30.592-30.591 30.592z" fill="#fc226a" opacity="1" data-original="#000000"></path><path d="M316.492 251.039h-80.186a8.284 8.284 0 0 1 0-16.568h70.507l-3.067-19.642a8.279 8.279 0 0 1 6.905-9.462c4.563-.689 8.756 2.389 9.461 6.905l4.562 29.205a8.281 8.281 0 0 1-8.182 9.562zM91.119 295.656a8.284 8.284 0 0 1-8.284-8.284v-80.458a8.3 8.3 0 0 1 1.035-4.013l37.068-66.977c2.213-4.003 7.258-5.44 11.261-3.236a8.288 8.288 0 0 1 3.236 11.261l-36.032 65.104v78.319a8.283 8.283 0 0 1-8.284 8.284z" fill="#fc226a" opacity="1" data-original="#000000"></path><path d="M139.863 151.718c-16.286 0-29.537-13.251-29.537-29.537s13.251-29.537 29.537-29.537 29.537 13.251 29.537 29.537-13.251 29.537-29.537 29.537zm0-42.506c-7.152 0-12.97 5.818-12.97 12.969 0 7.152 5.818 12.97 12.97 12.97 7.151 0 12.969-5.818 12.969-12.97 0-7.151-5.819-12.969-12.969-12.969zM408.884 295.656a8.283 8.283 0 0 1-8.284-8.284v-78.319l-36.032-65.104a8.289 8.289 0 0 1 3.236-11.261c3.999-2.204 9.048-.766 11.261 3.236l37.067 66.977a8.3 8.3 0 0 1 1.035 4.013v80.458a8.283 8.283 0 0 1-8.283 8.284z" fill="#fc226a" opacity="1" data-original="#000000"></path><path d="M360.141 151.718c-16.289 0-29.54-13.251-29.54-29.537s13.251-29.537 29.54-29.537c16.287 0 29.538 13.251 29.538 29.537s-13.251 29.537-29.538 29.537zm0-42.506c-7.154 0-12.973 5.818-12.973 12.969 0 7.152 5.818 12.97 12.973 12.97 7.152 0 12.97-5.818 12.97-12.97-.001-7.151-5.818-12.969-12.97-12.969zM385.258 475H114.745a8.284 8.284 0 0 1-8.284-8.284V362.089a8.284 8.284 0 0 1 8.284-8.284h270.514a8.284 8.284 0 0 1 8.284 8.284v104.627a8.284 8.284 0 0 1-8.285 8.284zm-262.229-16.568h253.945v-88.059H123.029z" fill="#fc226a" opacity="1" data-original="#000000"></path></g></svg>