<svg xmlns="http://www.w3.org/2000/svg" version="1.1" xmlns:xlink="http://www.w3.org/1999/xlink" width="512" height="512" x="0" y="0" viewBox="0 0 64 64" style="enable-background:new 0 0 512 512" xml:space="preserve" class=""><g><path d="M62 31h-1v-6.172a7.77 7.77 0 0 0-2.293-5.535A7.777 7.777 0 0 0 53.171 17H52v-1.082c2.387-1.386 4-3.964 4-6.918 0-4.411-3.589-8-8-8s-8 3.589-8 8c0 2.953 1.613 5.532 4 6.918V17h-1.171a7.777 7.777 0 0 0-5.536 2.293A7.772 7.772 0 0 0 35 24.828V31h-2v-3a1 1 0 0 0-1-1h-3v-.343c0-2.916.984-5.679 2.787-7.918.372.165.781.261 1.213.261 1.654 0 3-1.346 3-3s-1.346-3-3-3-3 1.346-3 3c0 .488.128.941.335 1.349A14.547 14.547 0 0 0 27 26.657V27h-3a1 1 0 0 0-1 1v3h-1a1 1 0 0 0-1 1v4a1 1 0 0 0 1 1h1v6c-2.757 0-5 2.243-5 5 0 1.485.664 2.806 1.695 3.723A8.04 8.04 0 0 0 16 55.136a8.05 8.05 0 0 0-3.695-3.413C13.336 50.806 14 49.485 14 48c0-2.757-2.243-5-5-5s-5 2.243-5 5c0 1.485.664 2.806 1.695 3.723C2.93 52.984 1 55.768 1 59v3a1 1 0 0 0 1 1h42a1 1 0 0 0 1-1v-1h15a1 1 0 0 0 1-1V37h1a1 1 0 0 0 1-1v-4a1 1 0 0 0-1-1zM33 15a1.001 1.001 0 1 1-1 1c0-.552.449-1 1-1zm26 9.828V31h-2v-4h-2v4h-6v-7.382l2.553 1.276a.99.99 0 0 0 .83.03c.268-.111.474-.333.566-.607l1.707-5.12a5.792 5.792 0 0 1 2.638 1.511A5.788 5.788 0 0 1 59 24.828zM44.5 19l1.981 2.641-1.897.949L43.388 19zm7 0h1.113l-1.196 3.59-1.897-.949zM48 3c2.94 0 5.388 2.127 5.898 4.922a8.586 8.586 0 0 1-5.018-2.457l-.171-.172a1.028 1.028 0 0 0-1.416 0l-.17.171a8.58 8.58 0 0 1-5.019 2.457C42.612 5.127 45.06 3 48 3zm-5.925 6.947A10.555 10.555 0 0 0 48 7.38a10.558 10.558 0 0 0 5.925 2.567C53.47 12.807 50.986 15 48 15s-5.47-2.193-5.925-5.053zM48 17c.692 0 1.359-.097 2-.263v.93l-2 2.666-2-2.666v-.93A7.953 7.953 0 0 0 48 17zm-11 7.828c0-1.557.606-3.021 1.707-4.121a5.8 5.8 0 0 1 2.638-1.511l1.707 5.12a1.002 1.002 0 0 0 1.395.579L47 23.618V31h-6v-4h-2v4h-2zM25 29h6v2h-6zm-5 19c0-1.654 1.346-3 3-3s3 1.346 3 3-1.346 3-3 3-3-1.346-3-3zM6 48c0-1.654 1.346-3 3-3s3 1.346 3 3-1.346 3-3 3-3-1.346-3-3zM3 59c0-3.309 2.691-6 6-6s6 2.691 6 6v2H3zm14 0c0-3.309 2.691-6 6-6s6 2.691 6 6v2H17zm26 2H31v-2c0-3.309 2.691-6 6-6s6 2.691 6 6zm-9-13c0-1.654 1.346-3 3-3s3 1.346 3 3-1.346 3-3 3-3-1.346-3-3zm25 11H45c0-3.232-1.93-6.016-4.695-7.277C41.336 50.806 42 49.485 42 48c0-2.757-2.243-5-5-5s-5 2.243-5 5c0 1.485.664 2.806 1.695 3.723A8.04 8.04 0 0 0 30 55.136a8.05 8.05 0 0 0-3.695-3.413C27.336 50.806 28 49.485 28 48a5.003 5.003 0 0 0-3-4.576V37h34zm2-24H23v-2h38zM4 21h16c1.654 0 3-1.346 3-3v-1.586l3.707-3.707a.999.999 0 0 0 0-1.414L23 7.586V6c0-1.654-1.346-3-3-3H4C2.346 3 1 4.346 1 6v12c0 1.654 1.346 3 3 3zM3 6c0-.552.449-1 1-1h16c.551 0 1 .448 1 1v2c0 .266.105.52.293.707L24.586 12l-3.293 3.293A.996.996 0 0 0 21 16v2c0 .552-.449 1-1 1H4c-.551 0-1-.448-1-1z" fill="#fc226a" opacity="1" data-original="#000000" class=""></path><path d="M5 7h14v2H5zM5 15h14v2H5zM7 11h10v2H7z" fill="#fc226a" opacity="1" data-original="#000000" class=""></path></g></svg>