<svg xmlns="http://www.w3.org/2000/svg" xmlns:xlink="http://www.w3.org/1999/xlink" width="500" zoomAndPan="magnify" viewBox="0 0 375 374.999991" height="500" preserveAspectRatio="xMidYMid meet" version="1.0"><defs><filter x="0%" y="0%" width="100%" height="100%" id="e3e93d304a"><feColorMatrix values="0 0 0 0 1 0 0 0 0 1 0 0 0 0 1 0 0 0 1 0" color-interpolation-filters="sRGB"/></filter><g/><mask id="63c2b751f2"><g filter="url(#e3e93d304a)"><rect x="-37.5" width="450" fill="#000000" y="-37.499999" height="449.999989" fill-opacity="0.8"/></g></mask><clipPath id="d5cdc24dd5"><path d="M 2 84 L 130 84 L 130 141.441406 L 2 141.441406 Z M 2 84 " clip-rule="nonzero"/></clipPath><clipPath id="f58d345c99"><path d="M 0.679688 13 L 134.179688 13 L 134.179688 47 L 0.679688 47 Z M 0.679688 13 " clip-rule="nonzero"/></clipPath><clipPath id="08623a628f"><path d="M 58 0.320312 L 77 0.320312 L 77 47 L 58 47 Z M 58 0.320312 " clip-rule="nonzero"/></clipPath><clipPath id="16c2c575c8"><rect x="0" width="135" y="0" height="142"/></clipPath></defs><g mask="url(#63c2b751f2)"><g transform="matrix(1, 0, 0, 1, 120, 94)"><g clip-path="url(#16c2c575c8)"><path fill="#5271ff" d="M 42.492188 48 C 49.242188 56.769531 52.132812 59.332031 63.300781 62.523438 L 66.09375 72.25 L 68.886719 62.523438 C 80.058594 59.332031 82.945312 56.769531 89.695312 48 C 79.953125 78.398438 71.816406 55.789062 70.574219 98.738281 C 70.554688 102.214844 70.539062 105.769531 70.523438 109.417969 C 69.675781 111.292969 68.765625 113.324219 67.835938 115.402344 L 67.714844 115.488281 L 63.195312 112.824219 C 62.671875 111.648438 62.15625 110.507812 61.667969 109.414062 C 61.648438 105.769531 61.632812 102.214844 61.613281 98.734375 C 60.375 55.789062 52.234375 78.398438 42.492188 48 Z M 66.09375 50.058594 C 69.371094 50.058594 72.03125 52.714844 72.03125 55.992188 C 72.03125 59.269531 69.371094 61.925781 66.09375 61.925781 C 62.816406 61.925781 60.160156 59.269531 60.160156 55.992188 C 60.160156 52.714844 62.816406 50.058594 66.09375 50.058594 " fill-opacity="1" fill-rule="evenodd"/><path fill="#5271ff" d="M 92.660156 65.890625 C 97.179688 78.320312 97.234375 86.886719 96.320312 97.988281 L 104.945312 93.730469 C 104.425781 84.570312 104.980469 76.6875 108.910156 65.890625 L 103.164062 66.464844 C 102.160156 69.816406 101.382812 72.765625 100.785156 75.460938 C 100.1875 72.765625 99.410156 69.816406 98.402344 66.464844 L 92.660156 65.890625 " fill-opacity="1" fill-rule="evenodd"/><path fill="#5271ff" d="M 100.785156 55.46875 C 103.621094 55.46875 105.925781 57.769531 105.925781 60.609375 C 105.925781 63.449219 103.621094 65.75 100.785156 65.75 C 97.945312 65.75 95.644531 63.449219 95.644531 60.609375 C 95.644531 57.769531 97.945312 55.46875 100.785156 55.46875 " fill-opacity="1" fill-rule="evenodd"/><path fill="#5271ff" d="M 107.226562 57.070312 C 111.976562 70.128906 111.792969 78.921875 110.742188 90.871094 L 119.613281 86.496094 C 118.941406 76.644531 119.324219 68.484375 123.476562 57.070312 L 117.734375 57.644531 C 116.726562 60.996094 115.949219 63.945312 115.351562 66.644531 C 114.753906 63.945312 113.976562 60.996094 112.972656 57.644531 L 107.226562 57.070312 " fill-opacity="1" fill-rule="evenodd"/><path fill="#5271ff" d="M 115.351562 46.652344 C 118.1875 46.652344 120.492188 48.953125 120.492188 51.789062 C 120.492188 54.628906 118.1875 56.929688 115.351562 56.929688 C 112.511719 56.929688 110.210938 54.628906 110.210938 51.789062 C 110.210938 48.953125 112.511719 46.652344 115.351562 46.652344 " fill-opacity="1" fill-rule="evenodd"/><path fill="#5271ff" d="M 78.226562 74.128906 C 82.589844 86.121094 82.792969 94.519531 81.980469 105.0625 L 90.457031 100.882812 C 90.042969 92.175781 90.707031 84.496094 94.476562 74.128906 L 88.730469 74.703125 C 87.726562 78.054688 86.949219 81.003906 86.351562 83.703125 C 85.753906 81.003906 84.976562 78.054688 83.972656 74.703125 L 78.226562 74.128906 " fill-opacity="1" fill-rule="evenodd"/><path fill="#5271ff" d="M 86.351562 63.710938 C 89.1875 63.710938 91.492188 66.011719 91.492188 68.847656 C 91.492188 71.6875 89.1875 73.988281 86.351562 73.988281 C 83.511719 73.988281 81.210938 71.6875 81.210938 68.847656 C 81.210938 66.011719 83.511719 63.710938 86.351562 63.710938 " fill-opacity="1" fill-rule="evenodd"/><path fill="#5271ff" d="M 39.527344 65.890625 C 34.960938 78.453125 34.953125 87.070312 35.898438 98.34375 L 27.226562 94.027344 C 27.773438 84.742188 27.25 76.804688 23.28125 65.890625 L 29.023438 66.464844 C 30.03125 69.816406 30.808594 72.765625 31.40625 75.460938 C 32 72.765625 32.777344 69.816406 33.785156 66.464844 L 39.527344 65.890625 " fill-opacity="1" fill-rule="evenodd"/><path fill="#5271ff" d="M 31.40625 55.46875 C 28.566406 55.46875 26.265625 57.769531 26.265625 60.609375 C 26.265625 63.449219 28.566406 65.75 31.40625 65.75 C 34.242188 65.75 36.542969 63.449219 36.542969 60.609375 C 36.542969 57.769531 34.242188 55.46875 31.40625 55.46875 " fill-opacity="1" fill-rule="evenodd"/><path fill="#5271ff" d="M 24.960938 57.070312 C 20.171875 70.234375 20.398438 79.066406 21.472656 91.167969 L 12.558594 86.734375 C 13.253906 76.773438 12.898438 68.578125 8.714844 57.070312 L 14.457031 57.644531 C 15.460938 60.996094 16.238281 63.945312 16.835938 66.644531 C 17.433594 63.945312 18.210938 60.996094 19.21875 57.644531 L 24.960938 57.070312 " fill-opacity="1" fill-rule="evenodd"/><path fill="#5271ff" d="M 16.835938 46.652344 C 14 46.652344 11.699219 48.953125 11.699219 51.789062 C 11.699219 54.628906 14 56.929688 16.835938 56.929688 C 19.675781 56.929688 21.976562 54.628906 21.976562 51.789062 C 21.976562 48.953125 19.675781 46.652344 16.835938 46.652344 " fill-opacity="1" fill-rule="evenodd"/><path fill="#5271ff" d="M 53.960938 74.128906 C 49.542969 86.277344 49.394531 94.734375 50.238281 105.476562 L 41.714844 101.234375 C 42.160156 92.382812 41.535156 84.636719 37.714844 74.128906 L 43.457031 74.703125 C 44.460938 78.054688 45.242188 81.003906 45.835938 83.703125 C 46.433594 81.003906 47.210938 78.054688 48.21875 74.703125 L 53.960938 74.128906 " fill-opacity="1" fill-rule="evenodd"/><path fill="#5271ff" d="M 45.835938 63.710938 C 43 63.710938 40.699219 66.011719 40.699219 68.847656 C 40.699219 71.6875 43 73.988281 45.835938 73.988281 C 48.675781 73.988281 50.976562 71.6875 50.976562 68.847656 C 50.976562 66.011719 48.675781 63.710938 45.835938 63.710938 " fill-opacity="1" fill-rule="evenodd"/><path fill="#5271ff" d="M 2.507812 81.996094 C 23.871094 90.539062 47.8125 98.824219 66.003906 110.921875 C 84.195312 98.824219 108.136719 90.539062 129.496094 81.996094 C 98.785156 97.421875 79.378906 109.019531 66.003906 121.441406 C 52.628906 109.019531 33.222656 97.421875 2.507812 81.996094 " fill-opacity="1" fill-rule="evenodd"/><g clip-path="url(#d5cdc24dd5)"><path fill="#5271ff" d="M 2.507812 84.84375 C 23.871094 97.070312 47.8125 108.9375 66.003906 126.261719 C 84.195312 108.9375 108.136719 97.070312 129.496094 84.84375 C 98.785156 106.933594 79.378906 123.53125 66.003906 141.316406 C 52.628906 123.53125 33.222656 106.933594 2.507812 84.84375 " fill-opacity="1" fill-rule="evenodd"/></g><g clip-path="url(#f58d345c99)"><path fill="#5271ff" d="M 9.839844 45.328125 L 9.59375 44.503906 C 9.550781 44.351562 9.625 44.195312 9.769531 44.128906 C 12.535156 42.910156 15.320312 41.738281 18.128906 40.625 C 23.914062 38.332031 29.804688 36.28125 35.8125 34.632812 C 41.148438 33.171875 46.574219 32.03125 52.066406 31.328125 C 57.203125 30.671875 62.390625 30.402344 67.570312 30.546875 C 69.433594 30.597656 71.292969 30.703125 73.148438 30.855469 C 82.050781 31.59375 90.8125 33.472656 99.382812 35.949219 C 105.304688 37.664062 111.148438 39.65625 116.9375 41.78125 C 119.753906 42.816406 122.5625 43.882812 125.359375 44.972656 C 125.507812 45.03125 125.589844 45.191406 125.546875 45.347656 L 125.3125 46.171875 C 125.289062 46.257812 125.234375 46.324219 125.152344 46.363281 C 125.070312 46.40625 124.984375 46.410156 124.902344 46.375 C 122.085938 45.28125 119.261719 44.207031 116.429688 43.164062 C 110.671875 41.050781 104.863281 39.070312 98.972656 37.367188 C 89.246094 34.554688 79.285156 32.527344 69.152344 32.078125 C 68.609375 32.054688 68.070312 32.035156 67.53125 32.019531 C 62.429688 31.878906 57.316406 32.144531 52.253906 32.789062 C 46.832031 33.484375 41.46875 34.613281 36.203125 36.054688 C 30.246094 37.6875 24.410156 39.71875 18.671875 41.996094 C 15.847656 43.117188 13.042969 44.296875 10.261719 45.523438 C 10.179688 45.5625 10.089844 45.5625 10.007812 45.523438 C 9.921875 45.484375 9.863281 45.414062 9.839844 45.328125 Z M 131.585938 24.015625 L 131.464844 24.445312 C 131.425781 24.582031 131.308594 24.671875 131.167969 24.671875 C 125.128906 24.726562 119.089844 24.757812 113.050781 24.65625 C 99.703125 24.433594 86.382812 23.535156 73.050781 22.921875 C 59.890625 22.320312 46.71875 22.019531 33.542969 21.980469 C 23.460938 21.953125 13.378906 22.074219 3.296875 22.226562 C 3.15625 22.230469 3.03125 22.140625 2.992188 22.003906 L 2.867188 21.578125 C 2.839844 21.484375 2.855469 21.386719 2.917969 21.304688 C 2.976562 21.226562 3.0625 21.179688 3.164062 21.179688 C 13.289062 21.023438 23.417969 20.902344 33.546875 20.929688 C 46.734375 20.96875 59.925781 21.269531 73.101562 21.875 C 86.421875 22.484375 99.730469 23.386719 113.066406 23.605469 C 119.140625 23.707031 125.210938 23.671875 131.285156 23.621094 C 131.386719 23.621094 131.472656 23.664062 131.535156 23.742188 C 131.597656 23.824219 131.617188 23.917969 131.585938 24.015625 Z M 128.988281 33.195312 L 128.757812 34.015625 C 128.707031 34.179688 128.539062 34.277344 128.375 34.230469 C 123.292969 32.863281 118.144531 31.742188 112.96875 30.804688 C 104.40625 29.253906 95.761719 28.183594 87.09375 27.453125 C 83.835938 27.179688 80.578125 26.957031 77.316406 26.773438 C 66.324219 26.160156 55.308594 26.035156 44.304688 26.355469 C 34.421875 26.636719 24.542969 27.269531 14.71875 28.402344 C 11.636719 28.753906 8.5625 29.148438 5.492188 29.570312 C 5.335938 29.589844 5.191406 29.5 5.148438 29.347656 L 4.90625 28.523438 C 4.878906 28.433594 4.894531 28.34375 4.945312 28.265625 C 4.996094 28.1875 5.070312 28.140625 5.164062 28.128906 C 8.289062 27.695312 11.417969 27.296875 14.550781 26.933594 C 24.417969 25.800781 34.335938 25.164062 44.261719 24.878906 C 55.304688 24.5625 66.367188 24.6875 77.398438 25.300781 C 81.875 25.554688 86.347656 25.882812 90.808594 26.308594 C 98.320312 27.023438 105.808594 28.007812 113.234375 29.355469 C 118.453125 30.300781 123.644531 31.429688 128.769531 32.8125 C 128.851562 32.832031 128.917969 32.882812 128.960938 32.957031 C 129.003906 33.03125 129.011719 33.113281 128.988281 33.195312 Z M 0.957031 15.0625 L 0.707031 14.207031 C 0.675781 14.109375 0.695312 14.011719 0.753906 13.933594 C 0.816406 13.847656 0.90625 13.808594 1.007812 13.808594 C 10.960938 13.949219 20.914062 14.335938 30.851562 14.921875 C 42.4375 15.609375 54.011719 16.566406 65.566406 17.664062 C 72.363281 18.308594 79.183594 18.722656 86.011719 18.8125 C 92.304688 18.890625 98.597656 18.691406 104.867188 18.195312 C 114.628906 17.425781 124.316406 15.941406 133.929688 14.089844 C 134.039062 14.070312 134.140625 14.101562 134.21875 14.183594 C 134.292969 14.269531 134.316406 14.375 134.285156 14.480469 L 134.027344 15.398438 C 133.996094 15.515625 133.90625 15.597656 133.785156 15.617188 C 132.882812 15.792969 131.980469 15.960938 131.074219 16.125 C 122.441406 17.714844 113.738281 18.976562 104.984375 19.667969 C 98.667969 20.164062 92.328125 20.367188 85.992188 20.285156 C 79.125 20.199219 72.261719 19.78125 65.425781 19.132812 C 53.886719 18.035156 42.335938 17.078125 30.761719 16.394531 C 20.933594 15.8125 11.09375 15.429688 1.25 15.285156 C 1.113281 15.285156 0.996094 15.195312 0.957031 15.0625 Z M 127.015625 40.160156 L 126.898438 40.570312 C 126.875 40.65625 126.824219 40.71875 126.746094 40.761719 C 126.667969 40.800781 126.585938 40.808594 126.503906 40.78125 L 126.019531 40.625 C 122.625 39.507812 119.21875 38.425781 115.78125 37.449219 C 108.433594 35.363281 100.953125 33.75 93.445312 32.375 C 86.222656 31.050781 78.933594 29.90625 71.605469 29.367188 C 65.457031 28.914062 59.320312 29.023438 53.175781 29.441406 C 49.855469 29.667969 46.542969 29.980469 43.242188 30.414062 C 38.660156 31.015625 34.109375 31.816406 29.578125 32.710938 C 22.296875 34.148438 15.054688 35.757812 7.824219 37.429688 C 7.664062 37.464844 7.503906 37.371094 7.457031 37.214844 L 7.335938 36.800781 C 7.3125 36.71875 7.320312 36.632812 7.367188 36.558594 C 7.410156 36.480469 7.476562 36.429688 7.566406 36.410156 C 14.8125 34.738281 22.074219 33.121094 29.375 31.679688 C 33.925781 30.78125 38.5 29.976562 43.105469 29.371094 C 46.425781 28.9375 49.761719 28.621094 53.105469 28.394531 C 59.300781 27.972656 65.484375 27.863281 71.679688 28.316406 C 79.046875 28.859375 86.375 30.011719 93.632812 31.339844 C 101.175781 32.722656 108.6875 34.34375 116.066406 36.441406 C 119.519531 37.417969 122.9375 38.507812 126.347656 39.625 L 126.8125 39.777344 C 126.972656 39.832031 127.0625 40 127.015625 40.160156 " fill-opacity="1" fill-rule="evenodd"/></g><g clip-path="url(#08623a628f)"><path fill="#5271ff" d="M 67.554688 13.628906 C 66.707031 14.199219 65.832031 14.742188 64.984375 15.320312 C 62.257812 17.183594 59.886719 19.785156 58.8125 22.957031 C 57.996094 25.375 57.988281 28.078125 59.292969 30.332031 C 61.019531 33.316406 64.347656 34.382812 67.632812 34.300781 L 67.886719 34.292969 L 67.945312 39.9375 C 67.964844 41.960938 67.484375 44.933594 64.71875 44.304688 L 64.144531 44.171875 L 64.636719 43.851562 C 65.421875 43.34375 65.898438 42.472656 65.898438 41.535156 C 65.898438 37.558594 59.394531 37.949219 60.28125 42.53125 C 60.488281 43.621094 61.246094 44.601562 62.160156 45.203125 C 64.390625 46.667969 66.933594 46.191406 68.324219 43.910156 C 69.035156 42.742188 69.0625 41.269531 69.046875 39.945312 C 69.023438 38.105469 69 36.265625 68.980469 34.429688 L 68.976562 34.21875 L 69.183594 34.183594 C 72.1875 33.632812 75.089844 30.886719 75.207031 27.714844 C 75.566406 24.226562 72.496094 21.097656 69.007812 21.34375 L 68.75 21.359375 L 68.667969 16.972656 L 68.8125 16.902344 C 74.265625 14.304688 77.054688 8.96875 75.824219 3.042969 C 75.167969 -0.132812 73.296875 -0.269531 71.417969 2.1875 C 68.777344 5.648438 67.8125 9.089844 67.664062 13.429688 L 67.660156 13.558594 Z M 67.535156 32.8125 C 64.691406 32.820312 61.6875 31.941406 60.546875 29.070312 C 59.804688 27.199219 60.109375 25.03125 60.949219 23.25 C 62.148438 20.714844 64.871094 19.480469 67.101562 17.988281 L 67.480469 17.734375 L 67.558594 21.652344 L 67.359375 21.695312 C 65.878906 22.019531 64.699219 23.042969 64.0625 24.402344 C 63.511719 25.570312 63.355469 27.054688 63.996094 28.222656 C 64.28125 28.746094 64.699219 29.152344 65.226562 29.425781 C 65.328125 29.480469 65.445312 29.359375 65.386719 29.253906 C 64.363281 27.402344 65.15625 24.894531 67.3125 24.375 L 67.613281 24.304688 L 67.789062 32.808594 Z M 73.148438 3.761719 C 73.582031 7.746094 72.488281 10.152344 69.421875 12.679688 L 69 13.03125 L 69.015625 12.480469 C 69.136719 8.804688 70.292969 6.347656 72.71875 3.625 L 73.089844 3.207031 Z M 68.933594 32.292969 C 68.855469 29.667969 68.953125 27.035156 68.816406 24.410156 L 68.804688 24.140625 L 69.074219 24.148438 C 73.925781 24.324219 73.363281 30.9375 69.273438 32.519531 L 68.945312 32.644531 L 68.933594 32.292969 " fill-opacity="1" fill-rule="evenodd"/></g><path fill="#5271ff" d="M 17.636719 11.0625 C 17.949219 11.0625 18.203125 11.316406 18.203125 11.628906 L 18.203125 36.011719 C 18.203125 36.027344 18.203125 36.042969 18.203125 36.058594 C 18.273438 37.613281 16.859375 39.546875 14.601562 40.773438 C 11.867188 42.257812 8.929688 42.136719 8.042969 40.503906 C 7.15625 38.871094 8.65625 36.34375 11.390625 34.859375 C 13.511719 33.707031 15.753906 33.523438 17.066406 34.257812 L 17.066406 11.628906 C 17.066406 11.316406 17.324219 11.0625 17.636719 11.0625 " fill-opacity="1" fill-rule="evenodd"/><path fill="#5271ff" d="M 47.929688 17.472656 L 47.929688 32.882812 C 47.929688 32.894531 47.929688 32.90625 47.929688 32.914062 C 47.980469 34.050781 46.949219 35.460938 45.304688 36.351562 C 43.3125 37.433594 41.171875 37.347656 40.527344 36.15625 C 39.882812 34.96875 40.972656 33.125 42.96875 32.046875 C 44.511719 31.207031 46.144531 31.070312 47.101562 31.605469 L 47.101562 20.15625 C 44.878906 21.339844 42.359375 22.050781 39.914062 22.265625 L 39.914062 32.882812 C 39.914062 32.894531 39.914062 32.90625 39.914062 32.914062 C 39.964844 34.050781 38.933594 35.460938 37.289062 36.351562 C 35.296875 37.433594 33.15625 37.347656 32.511719 36.15625 C 31.867188 34.96875 32.957031 33.125 34.949219 32.046875 C 36.496094 31.207031 38.128906 31.070312 39.085938 31.605469 L 39.085938 22.316406 C 36.371094 22.429688 33.804688 21.914062 31.898438 20.742188 L 31.898438 32.882812 C 31.898438 32.894531 31.898438 32.90625 31.894531 32.914062 C 31.949219 34.050781 30.917969 35.460938 29.273438 36.351562 C 27.28125 37.433594 25.140625 37.347656 24.496094 36.15625 C 23.847656 34.96875 24.941406 33.125 26.933594 32.046875 C 28.480469 31.207031 30.113281 31.070312 31.070312 31.605469 L 31.070312 18.175781 L 31.078125 18.179688 L 31.09375 18.191406 L 31.097656 18.191406 L 31.101562 18.195312 L 31.121094 18.203125 L 31.128906 18.207031 L 31.132812 18.210938 L 31.136719 18.210938 L 31.144531 18.214844 L 31.148438 18.214844 L 31.152344 18.21875 L 31.167969 18.226562 L 31.171875 18.230469 L 31.175781 18.230469 L 31.183594 18.238281 L 31.1875 18.238281 L 31.25 18.269531 L 31.253906 18.269531 L 31.257812 18.273438 L 31.277344 18.28125 L 31.277344 18.285156 L 31.285156 18.285156 L 31.289062 18.289062 L 31.292969 18.289062 L 31.300781 18.292969 L 31.308594 18.300781 L 31.316406 18.300781 L 31.316406 18.304688 L 31.328125 18.304688 L 31.328125 18.308594 L 31.351562 18.320312 L 31.355469 18.320312 L 31.359375 18.324219 L 31.367188 18.328125 L 31.378906 18.332031 L 31.40625 18.347656 L 31.410156 18.347656 L 31.425781 18.355469 L 31.429688 18.359375 L 31.433594 18.359375 L 31.441406 18.363281 L 31.445312 18.363281 L 31.449219 18.367188 L 31.457031 18.367188 L 31.457031 18.371094 L 31.464844 18.375 L 31.46875 18.375 L 31.472656 18.378906 L 31.484375 18.382812 L 31.488281 18.382812 L 31.507812 18.394531 L 31.523438 18.398438 L 31.535156 18.40625 L 31.5625 18.414062 L 31.574219 18.421875 L 31.582031 18.425781 L 31.585938 18.425781 L 31.597656 18.433594 L 31.613281 18.4375 L 31.652344 18.457031 L 31.664062 18.460938 L 31.691406 18.472656 L 31.703125 18.476562 L 31.707031 18.480469 L 31.714844 18.484375 L 31.730469 18.488281 L 31.734375 18.492188 L 31.742188 18.492188 L 31.753906 18.5 L 31.761719 18.503906 L 31.765625 18.503906 L 31.78125 18.507812 L 31.789062 18.515625 L 31.804688 18.519531 L 31.816406 18.523438 L 31.820312 18.523438 L 31.832031 18.53125 L 31.84375 18.535156 L 31.859375 18.539062 L 31.871094 18.546875 L 31.882812 18.550781 L 31.898438 18.558594 C 32.382812 18.746094 32.890625 18.882812 33.472656 19.007812 C 34.480469 19.21875 35.714844 19.382812 36.984375 19.460938 C 37.679688 19.5 38.382812 19.515625 39.085938 19.5 L 39.230469 19.5 L 39.242188 19.496094 L 39.328125 19.496094 L 39.332031 19.492188 L 39.460938 19.492188 L 39.476562 19.488281 L 39.578125 19.488281 L 39.589844 19.484375 L 39.640625 19.484375 L 39.691406 19.480469 L 39.71875 19.480469 L 39.746094 19.476562 L 39.824219 19.476562 L 39.835938 19.472656 L 39.914062 19.472656 C 40.21875 19.453125 40.523438 19.433594 40.828125 19.40625 C 42.097656 19.289062 43.332031 19.070312 44.546875 18.726562 C 45.421875 18.480469 46.289062 18.167969 47.101562 17.828125 L 47.128906 17.816406 L 47.140625 17.8125 L 47.167969 17.800781 L 47.183594 17.796875 L 47.195312 17.792969 L 47.207031 17.785156 L 47.230469 17.777344 L 47.234375 17.773438 L 47.246094 17.769531 L 47.273438 17.757812 L 47.289062 17.753906 L 47.3125 17.742188 L 47.316406 17.738281 L 47.324219 17.734375 L 47.339844 17.730469 L 47.351562 17.726562 L 47.367188 17.71875 L 47.378906 17.714844 L 47.402344 17.703125 L 47.417969 17.699219 L 47.445312 17.6875 L 47.449219 17.683594 L 47.480469 17.667969 L 47.492188 17.667969 L 47.507812 17.65625 L 47.519531 17.652344 L 47.546875 17.640625 L 47.558594 17.636719 L 47.585938 17.625 L 47.59375 17.621094 L 47.597656 17.621094 L 47.609375 17.613281 L 47.613281 17.613281 L 47.621094 17.609375 L 47.625 17.609375 L 47.628906 17.605469 L 47.644531 17.597656 L 47.648438 17.597656 L 47.671875 17.585938 L 47.679688 17.585938 L 47.683594 17.582031 L 47.691406 17.578125 L 47.703125 17.574219 L 47.707031 17.570312 L 47.71875 17.566406 L 47.722656 17.566406 L 47.734375 17.5625 L 47.738281 17.558594 L 47.753906 17.550781 L 47.765625 17.546875 L 47.773438 17.542969 L 47.785156 17.535156 L 47.789062 17.535156 L 47.800781 17.53125 L 47.804688 17.53125 L 47.808594 17.527344 L 47.824219 17.519531 L 47.828125 17.519531 L 47.839844 17.511719 L 47.84375 17.511719 L 47.855469 17.507812 L 47.867188 17.5 L 47.878906 17.496094 L 47.882812 17.492188 L 47.890625 17.488281 L 47.902344 17.484375 L 47.90625 17.484375 L 47.917969 17.476562 L 47.925781 17.472656 L 47.929688 17.472656 " fill-opacity="1" fill-rule="evenodd"/><path fill="#5271ff" d="M 94.351562 19.6875 L 94.351562 35.605469 C 94.351562 35.617188 94.351562 35.632812 94.347656 35.644531 C 94.410156 36.910156 93.257812 38.484375 91.417969 39.484375 C 89.191406 40.691406 86.804688 40.59375 86.082031 39.265625 C 85.359375 37.9375 86.578125 35.878906 88.804688 34.671875 C 90.53125 33.734375 92.355469 33.582031 93.425781 34.179688 L 93.425781 15.765625 C 93.425781 15.746094 93.429688 15.726562 93.429688 15.707031 C 93.414062 15.511719 93.402344 15.332031 93.390625 15.171875 C 93.351562 14.472656 93.375 14.226562 93.5625 14.402344 C 93.753906 14.582031 94.109375 15.183594 94.605469 15.695312 C 95.105469 16.203125 95.742188 16.617188 96.578125 17.027344 C 97.414062 17.4375 98.445312 17.839844 99.289062 18.375 C 100.128906 18.90625 100.78125 19.570312 101.21875 20.386719 C 101.660156 21.207031 101.882812 22.175781 101.84375 23.355469 C 101.800781 24.535156 101.492188 25.921875 101.332031 26.550781 C 101.171875 27.179688 101.160156 27.050781 101.152344 26.640625 C 101.148438 26.230469 101.148438 25.542969 101.007812 24.855469 C 100.863281 24.167969 100.578125 23.480469 100.074219 23.078125 C 99.570312 22.675781 98.847656 22.558594 98.167969 22.398438 C 97.488281 22.238281 96.847656 22.035156 96.242188 21.667969 C 95.636719 21.300781 95.066406 20.765625 94.640625 20.15625 C 94.535156 20.007812 94.441406 19.851562 94.351562 19.6875 " fill-opacity="1" fill-rule="evenodd"/><path fill="#5271ff" d="M 121.019531 26.285156 L 121.019531 37.046875 C 121.007812 38.160156 119.988281 39.507812 118.398438 40.375 C 116.40625 41.457031 114.265625 41.367188 113.621094 40.179688 C 112.972656 38.992188 114.066406 37.148438 116.058594 36.066406 C 117.605469 35.226562 119.238281 35.09375 120.195312 35.628906 L 120.195312 28.796875 C 117.375 28.484375 115.382812 28.058594 113.003906 26.804688 L 113.003906 36.90625 C 113.003906 36.917969 113.003906 36.925781 113.003906 36.9375 C 113.054688 38.074219 112.023438 39.484375 110.378906 40.375 C 108.386719 41.457031 106.25 41.367188 105.605469 40.179688 C 104.957031 38.992188 106.050781 37.148438 108.042969 36.066406 C 109.589844 35.226562 111.222656 35.09375 112.175781 35.628906 L 112.175781 22.199219 L 112.1875 22.203125 L 112.191406 22.207031 L 112.195312 22.207031 L 112.203125 22.210938 L 112.207031 22.214844 L 112.210938 22.214844 L 112.21875 22.21875 L 112.230469 22.226562 L 112.234375 22.230469 L 112.242188 22.234375 L 112.25 22.234375 L 112.253906 22.238281 L 112.277344 22.25 L 112.28125 22.253906 L 112.289062 22.253906 L 112.300781 22.265625 L 112.308594 22.265625 L 112.3125 22.269531 L 112.316406 22.269531 L 112.328125 22.273438 L 112.328125 22.277344 L 112.332031 22.28125 L 112.335938 22.28125 L 112.347656 22.285156 L 112.351562 22.289062 L 112.394531 22.308594 L 112.398438 22.3125 L 112.402344 22.3125 L 112.40625 22.316406 L 112.410156 22.316406 L 112.433594 22.328125 L 112.4375 22.332031 L 112.441406 22.332031 L 112.445312 22.335938 L 112.449219 22.335938 L 112.460938 22.339844 L 112.460938 22.34375 L 112.464844 22.34375 L 112.484375 22.351562 L 112.539062 22.378906 L 112.542969 22.378906 L 112.546875 22.382812 L 112.554688 22.382812 L 112.5625 22.390625 L 112.566406 22.390625 L 112.574219 22.394531 L 112.578125 22.398438 L 112.582031 22.398438 L 112.597656 22.40625 L 112.601562 22.410156 L 112.605469 22.410156 L 112.617188 22.414062 L 112.625 22.417969 L 112.628906 22.421875 L 112.632812 22.421875 L 112.644531 22.425781 L 112.65625 22.433594 L 112.667969 22.4375 L 112.691406 22.449219 L 112.695312 22.449219 L 112.707031 22.453125 L 112.707031 22.457031 L 112.746094 22.472656 L 112.757812 22.476562 L 112.761719 22.480469 L 112.773438 22.484375 L 112.808594 22.5 L 112.816406 22.5 L 112.824219 22.503906 L 112.835938 22.511719 L 112.839844 22.511719 L 112.863281 22.519531 L 112.871094 22.523438 L 112.875 22.527344 L 112.890625 22.53125 L 112.902344 22.535156 L 112.914062 22.542969 L 112.925781 22.546875 L 112.953125 22.558594 L 112.96875 22.5625 L 112.980469 22.566406 L 112.992188 22.574219 L 113.003906 22.578125 C 113.492188 22.765625 114 22.90625 114.578125 23.027344 C 115.585938 23.242188 116.824219 23.40625 118.09375 23.480469 C 118.785156 23.523438 119.492188 23.535156 120.195312 23.523438 L 120.234375 23.523438 L 120.246094 23.519531 L 120.402344 23.519531 L 120.414062 23.515625 L 120.53125 23.515625 L 120.542969 23.511719 L 120.648438 23.511719 L 120.6875 23.507812 L 120.726562 23.507812 L 120.738281 23.503906 L 120.828125 23.503906 L 120.855469 23.5 L 120.917969 23.5 L 120.933594 23.496094 L 120.996094 23.496094 L 121.007812 23.492188 L 121.019531 23.492188 Z M 120.195312 27.875 L 120.195312 26.339844 C 117.480469 26.453125 114.910156 25.9375 113.003906 24.761719 L 113.003906 26.160156 C 115.398438 27.386719 117.382812 27.835938 120.195312 27.875 " fill-opacity="1" fill-rule="evenodd"/></g></g></g><g fill="#e03fd8" fill-opacity="1"><g transform="translate(127.528811, 254.782176)"><g><path d="M 10.171875 0.234375 C 8.316406 0.234375 6.707031 -0.0703125 5.34375 -0.6875 C 3.988281 -1.3125 2.953125 -2.203125 2.234375 -3.359375 C 1.515625 -4.523438 1.15625 -5.90625 1.15625 -7.5 C 1.15625 -8.90625 1.40625 -10.140625 1.90625 -11.203125 C 2.414062 -12.265625 3.117188 -13.144531 4.015625 -13.84375 C 4.921875 -14.550781 5.957031 -15.078125 7.125 -15.421875 C 8.300781 -15.773438 9.554688 -15.953125 10.890625 -15.953125 C 11.765625 -15.953125 12.613281 -15.859375 13.4375 -15.671875 C 14.269531 -15.484375 14.945312 -15.253906 15.46875 -14.984375 L 15.65625 -10.625 L 13.734375 -10.515625 L 12.65625 -13.515625 C 12.320312 -13.660156 11.992188 -13.765625 11.671875 -13.828125 C 11.347656 -13.890625 11.007812 -13.921875 10.65625 -13.921875 C 9.832031 -13.921875 9.101562 -13.707031 8.46875 -13.28125 C 7.832031 -12.863281 7.335938 -12.234375 6.984375 -11.390625 C 6.628906 -10.554688 6.453125 -9.515625 6.453125 -8.265625 C 6.453125 -6.984375 6.65625 -5.863281 7.0625 -4.90625 C 7.476562 -3.957031 8.023438 -3.21875 8.703125 -2.6875 C 9.390625 -2.164062 10.15625 -1.90625 11 -1.90625 C 11.5 -1.90625 11.957031 -1.96875 12.375 -2.09375 C 12.789062 -2.21875 13.15625 -2.40625 13.46875 -2.65625 L 14.34375 -5.171875 L 16.484375 -4.953125 L 15.703125 -1.234375 C 15.148438 -0.816406 14.363281 -0.46875 13.34375 -0.1875 C 12.332031 0.09375 11.273438 0.234375 10.171875 0.234375 Z M 10.171875 0.234375 "/></g></g></g><g fill="#e03fd8" fill-opacity="1"><g transform="translate(146.224367, 254.782176)"><g><path d="M 10.46875 0 L 10.390625 -1.53125 L 12.046875 -2.03125 C 12.078125 -2.132812 12.101562 -2.410156 12.125 -2.859375 C 12.15625 -3.304688 12.179688 -3.835938 12.203125 -4.453125 C 12.222656 -5.066406 12.234375 -5.671875 12.234375 -6.265625 L 12.234375 -9.46875 C 12.234375 -10.082031 12.222656 -10.703125 12.203125 -11.328125 C 12.179688 -11.953125 12.15625 -12.484375 12.125 -12.921875 C 12.101562 -13.367188 12.078125 -13.640625 12.046875 -13.734375 L 10.390625 -14.1875 L 10.46875 -15.703125 L 18.578125 -15.703125 L 18.65625 -14.1875 L 16.921875 -13.734375 C 16.898438 -13.640625 16.867188 -13.34375 16.828125 -12.84375 C 16.796875 -12.34375 16.765625 -11.773438 16.734375 -11.140625 C 16.710938 -10.515625 16.703125 -9.957031 16.703125 -9.46875 L 16.703125 -6.265625 C 16.703125 -5.796875 16.710938 -5.25 16.734375 -4.625 C 16.765625 -4 16.796875 -3.4375 16.828125 -2.9375 C 16.867188 -2.4375 16.898438 -2.132812 16.921875 -2.03125 L 18.65625 -1.53125 L 18.578125 0 Z M 0.890625 0 L 0.796875 -1.53125 L 2.546875 -2.03125 C 2.578125 -2.101562 2.609375 -2.34375 2.640625 -2.75 C 2.679688 -3.164062 2.707031 -3.6875 2.71875 -4.3125 C 2.738281 -4.9375 2.75 -5.585938 2.75 -6.265625 L 2.75 -9.46875 C 2.75 -10.164062 2.738281 -10.828125 2.71875 -11.453125 C 2.707031 -12.078125 2.679688 -12.597656 2.640625 -13.015625 C 2.609375 -13.441406 2.578125 -13.679688 2.546875 -13.734375 L 0.796875 -14.1875 L 0.890625 -15.703125 L 9 -15.703125 L 9.078125 -14.1875 L 7.40625 -13.734375 C 7.375 -13.640625 7.34375 -13.367188 7.3125 -12.921875 C 7.289062 -12.484375 7.269531 -11.953125 7.25 -11.328125 C 7.226562 -10.703125 7.21875 -10.082031 7.21875 -9.46875 L 7.21875 -6.265625 C 7.21875 -5.671875 7.226562 -5.066406 7.25 -4.453125 C 7.269531 -3.835938 7.289062 -3.304688 7.3125 -2.859375 C 7.34375 -2.410156 7.375 -2.132812 7.40625 -2.03125 L 9.078125 -1.53125 L 9 0 Z M 6.390625 -6.828125 L 6.390625 -9.15625 C 6.890625 -9.101562 7.378906 -9.066406 7.859375 -9.046875 C 8.347656 -9.023438 8.96875 -9.015625 9.71875 -9.015625 C 10.46875 -9.015625 11.082031 -9.023438 11.5625 -9.046875 C 12.039062 -9.066406 12.53125 -9.101562 13.03125 -9.15625 L 13.03125 -6.828125 C 12.695312 -6.828125 12.257812 -6.84375 11.71875 -6.875 C 11.1875 -6.914062 10.519531 -6.9375 9.71875 -6.9375 C 8.914062 -6.9375 8.253906 -6.914062 7.734375 -6.875 C 7.210938 -6.84375 6.765625 -6.828125 6.390625 -6.828125 Z M 6.390625 -6.828125 "/></g></g></g><g fill="#e03fd8" fill-opacity="1"><g transform="translate(167.329019, 254.782176)"><g><path d="M 0.859375 -15.703125 L 9.015625 -15.703125 L 9.09375 -14.1875 L 7.359375 -13.703125 C 7.335938 -13.453125 7.3125 -13.09375 7.28125 -12.625 C 7.257812 -12.164062 7.238281 -11.660156 7.21875 -11.109375 C 7.207031 -10.554688 7.203125 -10.007812 7.203125 -9.46875 L 7.203125 -7.546875 C 7.203125 -6.546875 7.320312 -5.6875 7.5625 -4.96875 C 7.800781 -4.257812 8.1875 -3.710938 8.71875 -3.328125 C 9.257812 -2.941406 9.945312 -2.75 10.78125 -2.75 C 11.644531 -2.75 12.332031 -2.929688 12.84375 -3.296875 C 13.363281 -3.671875 13.742188 -4.207031 13.984375 -4.90625 C 14.222656 -5.613281 14.34375 -6.46875 14.34375 -7.46875 L 14.34375 -9 C 14.34375 -9.613281 14.332031 -10.273438 14.3125 -10.984375 C 14.300781 -11.691406 14.28125 -12.304688 14.25 -12.828125 C 14.226562 -13.359375 14.195312 -13.648438 14.15625 -13.703125 L 12.28125 -14.1875 L 12.359375 -15.703125 L 18.78125 -15.703125 L 18.875 -14.1875 L 17.125 -13.703125 C 17.09375 -13.648438 17.054688 -13.359375 17.015625 -12.828125 C 16.984375 -12.304688 16.957031 -11.691406 16.9375 -10.984375 C 16.925781 -10.273438 16.921875 -9.613281 16.921875 -9 L 16.921875 -6.828125 C 16.921875 -5.472656 16.65625 -4.257812 16.125 -3.1875 C 15.59375 -2.113281 14.820312 -1.273438 13.8125 -0.671875 C 12.8125 -0.0664062 11.585938 0.234375 10.140625 0.234375 C 7.734375 0.234375 5.890625 -0.390625 4.609375 -1.640625 C 3.335938 -2.898438 2.703125 -4.691406 2.703125 -7.015625 L 2.703125 -9.46875 C 2.703125 -10.082031 2.691406 -10.703125 2.671875 -11.328125 C 2.660156 -11.953125 2.640625 -12.484375 2.609375 -12.921875 C 2.578125 -13.367188 2.546875 -13.628906 2.515625 -13.703125 L 0.78125 -14.1875 Z M 0.859375 -15.703125 "/></g></g></g><g fill="#e03fd8" fill-opacity="1"><g transform="translate(188.567507, 254.782176)"><g><path d="M 1.046875 0 L 0.96875 -1.53125 L 2.703125 -2 C 2.703125 -2.113281 2.707031 -2.332031 2.71875 -2.65625 C 2.726562 -2.988281 2.734375 -3.378906 2.734375 -3.828125 C 2.742188 -4.273438 2.753906 -4.71875 2.765625 -5.15625 C 2.773438 -5.59375 2.78125 -5.960938 2.78125 -6.265625 L 2.78125 -9.46875 C 2.78125 -10.164062 2.769531 -10.820312 2.75 -11.4375 C 2.738281 -12.050781 2.710938 -12.5625 2.671875 -12.96875 C 2.640625 -13.382812 2.601562 -13.617188 2.5625 -13.671875 L 0.828125 -14.1875 L 0.90625 -15.703125 L 8.484375 -15.703125 C 10.765625 -15.703125 12.429688 -15.375 13.484375 -14.71875 C 14.535156 -14.0625 15.0625 -12.992188 15.0625 -11.515625 C 15.0625 -10.640625 14.78125 -9.859375 14.21875 -9.171875 C 13.65625 -8.484375 12.878906 -7.941406 11.890625 -7.546875 C 10.898438 -7.148438 9.765625 -6.953125 8.484375 -6.953125 L 6.53125 -6.953125 L 6.53125 -8.71875 L 7.734375 -8.71875 C 8.503906 -8.71875 9.140625 -8.988281 9.640625 -9.53125 C 10.140625 -10.082031 10.390625 -10.785156 10.390625 -11.640625 C 10.390625 -12.410156 10.179688 -13 9.765625 -13.40625 C 9.359375 -13.820312 8.757812 -14.03125 7.96875 -14.03125 L 7.28125 -14.03125 C 7.28125 -13.957031 7.273438 -13.75 7.265625 -13.40625 C 7.253906 -13.070312 7.242188 -12.664062 7.234375 -12.1875 C 7.222656 -11.71875 7.21875 -11.238281 7.21875 -10.75 C 7.21875 -10.269531 7.21875 -9.863281 7.21875 -9.53125 L 7.21875 -6.265625 C 7.21875 -5.972656 7.222656 -5.550781 7.234375 -5 C 7.242188 -4.445312 7.253906 -3.890625 7.265625 -3.328125 C 7.273438 -2.765625 7.28125 -2.320312 7.28125 -2 L 8.71875 -1.53125 L 8.640625 0 Z M 15.8125 0.34375 C 14.6875 0.34375 13.675781 0.175781 12.78125 -0.15625 C 11.894531 -0.5 11.132812 -1 10.5 -1.65625 C 9.875 -2.320312 9.363281 -3.132812 8.96875 -4.09375 L 7.65625 -7.390625 L 11.21875 -8.21875 L 14.59375 -3.671875 C 14.875 -3.304688 15.179688 -2.96875 15.515625 -2.65625 C 15.859375 -2.34375 16.222656 -2.066406 16.609375 -1.828125 C 17.003906 -1.585938 17.425781 -1.398438 17.875 -1.265625 L 17.84375 0.15625 C 17.488281 0.226562 17.144531 0.273438 16.8125 0.296875 C 16.488281 0.328125 16.15625 0.34375 15.8125 0.34375 Z M 15.8125 0.34375 "/></g></g></g><g fill="#e03fd8" fill-opacity="1"><g transform="translate(208.066098, 254.782176)"><g><path d="M 10.171875 0.234375 C 8.316406 0.234375 6.707031 -0.0703125 5.34375 -0.6875 C 3.988281 -1.3125 2.953125 -2.203125 2.234375 -3.359375 C 1.515625 -4.523438 1.15625 -5.90625 1.15625 -7.5 C 1.15625 -8.90625 1.40625 -10.140625 1.90625 -11.203125 C 2.414062 -12.265625 3.117188 -13.144531 4.015625 -13.84375 C 4.921875 -14.550781 5.957031 -15.078125 7.125 -15.421875 C 8.300781 -15.773438 9.554688 -15.953125 10.890625 -15.953125 C 11.765625 -15.953125 12.613281 -15.859375 13.4375 -15.671875 C 14.269531 -15.484375 14.945312 -15.253906 15.46875 -14.984375 L 15.65625 -10.625 L 13.734375 -10.515625 L 12.65625 -13.515625 C 12.320312 -13.660156 11.992188 -13.765625 11.671875 -13.828125 C 11.347656 -13.890625 11.007812 -13.921875 10.65625 -13.921875 C 9.832031 -13.921875 9.101562 -13.707031 8.46875 -13.28125 C 7.832031 -12.863281 7.335938 -12.234375 6.984375 -11.390625 C 6.628906 -10.554688 6.453125 -9.515625 6.453125 -8.265625 C 6.453125 -6.984375 6.65625 -5.863281 7.0625 -4.90625 C 7.476562 -3.957031 8.023438 -3.21875 8.703125 -2.6875 C 9.390625 -2.164062 10.15625 -1.90625 11 -1.90625 C 11.5 -1.90625 11.957031 -1.96875 12.375 -2.09375 C 12.789062 -2.21875 13.15625 -2.40625 13.46875 -2.65625 L 14.34375 -5.171875 L 16.484375 -4.953125 L 15.703125 -1.234375 C 15.148438 -0.816406 14.363281 -0.46875 13.34375 -0.1875 C 12.332031 0.09375 11.273438 0.234375 10.171875 0.234375 Z M 10.171875 0.234375 "/></g></g></g><g fill="#e03fd8" fill-opacity="1"><g transform="translate(226.761657, 254.782176)"><g><path d="M 10.46875 0 L 10.390625 -1.53125 L 12.046875 -2.03125 C 12.078125 -2.132812 12.101562 -2.410156 12.125 -2.859375 C 12.15625 -3.304688 12.179688 -3.835938 12.203125 -4.453125 C 12.222656 -5.066406 12.234375 -5.671875 12.234375 -6.265625 L 12.234375 -9.46875 C 12.234375 -10.082031 12.222656 -10.703125 12.203125 -11.328125 C 12.179688 -11.953125 12.15625 -12.484375 12.125 -12.921875 C 12.101562 -13.367188 12.078125 -13.640625 12.046875 -13.734375 L 10.390625 -14.1875 L 10.46875 -15.703125 L 18.578125 -15.703125 L 18.65625 -14.1875 L 16.921875 -13.734375 C 16.898438 -13.640625 16.867188 -13.34375 16.828125 -12.84375 C 16.796875 -12.34375 16.765625 -11.773438 16.734375 -11.140625 C 16.710938 -10.515625 16.703125 -9.957031 16.703125 -9.46875 L 16.703125 -6.265625 C 16.703125 -5.796875 16.710938 -5.25 16.734375 -4.625 C 16.765625 -4 16.796875 -3.4375 16.828125 -2.9375 C 16.867188 -2.4375 16.898438 -2.132812 16.921875 -2.03125 L 18.65625 -1.53125 L 18.578125 0 Z M 0.890625 0 L 0.796875 -1.53125 L 2.546875 -2.03125 C 2.578125 -2.101562 2.609375 -2.34375 2.640625 -2.75 C 2.679688 -3.164062 2.707031 -3.6875 2.71875 -4.3125 C 2.738281 -4.9375 2.75 -5.585938 2.75 -6.265625 L 2.75 -9.46875 C 2.75 -10.164062 2.738281 -10.828125 2.71875 -11.453125 C 2.707031 -12.078125 2.679688 -12.597656 2.640625 -13.015625 C 2.609375 -13.441406 2.578125 -13.679688 2.546875 -13.734375 L 0.796875 -14.1875 L 0.890625 -15.703125 L 9 -15.703125 L 9.078125 -14.1875 L 7.40625 -13.734375 C 7.375 -13.640625 7.34375 -13.367188 7.3125 -12.921875 C 7.289062 -12.484375 7.269531 -11.953125 7.25 -11.328125 C 7.226562 -10.703125 7.21875 -10.082031 7.21875 -9.46875 L 7.21875 -6.265625 C 7.21875 -5.671875 7.226562 -5.066406 7.25 -4.453125 C 7.269531 -3.835938 7.289062 -3.304688 7.3125 -2.859375 C 7.34375 -2.410156 7.375 -2.132812 7.40625 -2.03125 L 9.078125 -1.53125 L 9 0 Z M 6.390625 -6.828125 L 6.390625 -9.15625 C 6.890625 -9.101562 7.378906 -9.066406 7.859375 -9.046875 C 8.347656 -9.023438 8.96875 -9.015625 9.71875 -9.015625 C 10.46875 -9.015625 11.082031 -9.023438 11.5625 -9.046875 C 12.039062 -9.066406 12.53125 -9.101562 13.03125 -9.15625 L 13.03125 -6.828125 C 12.695312 -6.828125 12.257812 -6.84375 11.71875 -6.875 C 11.1875 -6.914062 10.519531 -6.9375 9.71875 -6.9375 C 8.914062 -6.9375 8.253906 -6.914062 7.734375 -6.875 C 7.210938 -6.84375 6.765625 -6.828125 6.390625 -6.828125 Z M 6.390625 -6.828125 "/></g></g></g><g fill="#e03fd8" fill-opacity="1"><g transform="translate(247.868646, 254.782176)"><g/></g></g><g fill="#5271ff" fill-opacity="1"><g transform="translate(139.048289, 273.264006)"><g><path d="M 5.078125 -9 C 5.734375 -9 6.382812 -8.863281 7.03125 -8.59375 C 7.675781 -8.320312 8.222656 -7.957031 8.671875 -7.5 L 7.359375 -5.9375 C 7.066406 -6.300781 6.71875 -6.585938 6.3125 -6.796875 C 5.914062 -7.003906 5.515625 -7.109375 5.109375 -7.109375 C 4.398438 -7.109375 3.804688 -6.859375 3.328125 -6.359375 C 2.859375 -5.859375 2.625 -5.242188 2.625 -4.515625 C 2.625 -3.765625 2.859375 -3.140625 3.328125 -2.640625 C 3.804688 -2.140625 4.398438 -1.890625 5.109375 -1.890625 C 5.484375 -1.890625 5.875 -1.984375 6.28125 -2.171875 C 6.6875 -2.359375 7.046875 -2.613281 7.359375 -2.9375 L 8.6875 -1.53125 C 8.195312 -1.039062 7.625 -0.644531 6.96875 -0.34375 C 6.3125 -0.0390625 5.65625 0.109375 5 0.109375 C 3.65625 0.109375 2.535156 -0.328125 1.640625 -1.203125 C 0.753906 -2.085938 0.3125 -3.179688 0.3125 -4.484375 C 0.3125 -5.765625 0.765625 -6.835938 1.671875 -7.703125 C 2.578125 -8.566406 3.710938 -9 5.078125 -9 Z M 5.078125 -9 "/></g></g></g><g fill="#5271ff" fill-opacity="1"><g transform="translate(148.624229, 273.264006)"><g><path d="M 9.125 0 L 6.859375 0 L 6.859375 -3.46875 L 3.15625 -3.46875 L 3.15625 0 L 0.890625 0 L 0.890625 -8.921875 L 3.15625 -8.921875 L 3.15625 -5.25 L 6.859375 -5.25 L 6.859375 -8.921875 L 9.125 -8.921875 Z M 9.125 0 "/></g></g></g><g fill="#5271ff" fill-opacity="1"><g transform="translate(159.398663, 273.264006)"><g><path d="M 5.125 -9 C 6.507812 -9 7.660156 -8.566406 8.578125 -7.703125 C 9.492188 -6.835938 9.953125 -5.757812 9.953125 -4.46875 C 9.953125 -3.175781 9.488281 -2.085938 8.5625 -1.203125 C 7.644531 -0.328125 6.5 0.109375 5.125 0.109375 C 3.75 0.109375 2.601562 -0.328125 1.6875 -1.203125 C 0.769531 -2.078125 0.3125 -3.164062 0.3125 -4.46875 C 0.3125 -5.769531 0.769531 -6.847656 1.6875 -7.703125 C 2.601562 -8.566406 3.75 -9 5.125 -9 Z M 5.15625 -7.109375 C 4.457031 -7.109375 3.859375 -6.851562 3.359375 -6.34375 C 2.867188 -5.832031 2.625 -5.203125 2.625 -4.453125 C 2.625 -3.710938 2.875 -3.082031 3.375 -2.5625 C 3.875 -2.050781 4.46875 -1.796875 5.15625 -1.796875 C 5.84375 -1.796875 6.425781 -2.050781 6.90625 -2.5625 C 7.382812 -3.082031 7.625 -3.710938 7.625 -4.453125 C 7.625 -5.203125 7.382812 -5.832031 6.90625 -6.34375 C 6.425781 -6.851562 5.84375 -7.109375 5.15625 -7.109375 Z M 5.15625 -7.109375 "/></g></g></g><g fill="#5271ff" fill-opacity="1"><g transform="translate(170.415346, 273.264006)"><g><path d="M 3.15625 0 L 0.890625 0 L 0.890625 -8.921875 L 3.15625 -8.921875 Z M 3.15625 0 "/></g></g></g><g fill="#5271ff" fill-opacity="1"><g transform="translate(175.222797, 273.264006)"><g><path d="M 6.265625 0 L 4.953125 -2.515625 L 3.15625 -2.515625 L 3.15625 0 L 0.890625 0 L 0.890625 -8.921875 L 4.890625 -8.921875 C 6.066406 -8.921875 6.976562 -8.648438 7.625 -8.109375 C 8.269531 -7.578125 8.59375 -6.8125 8.59375 -5.8125 C 8.59375 -4.4375 8.050781 -3.476562 6.96875 -2.9375 L 8.84375 0 Z M 3.15625 -4.296875 L 4.890625 -4.296875 C 5.378906 -4.296875 5.757812 -4.414062 6.03125 -4.65625 C 6.300781 -4.90625 6.4375 -5.265625 6.4375 -5.734375 C 6.4375 -6.191406 6.300781 -6.539062 6.03125 -6.78125 C 5.757812 -7.019531 5.378906 -7.140625 4.890625 -7.140625 L 3.15625 -7.140625 Z M 3.15625 -4.296875 "/></g></g></g><g fill="#5271ff" fill-opacity="1"><g transform="translate(185.206731, 273.264006)"><g/></g></g><g fill="#5271ff" fill-opacity="1"><g transform="translate(188.917678, 273.264006)"><g><path d="M 5.078125 -9 C 5.734375 -9 6.382812 -8.863281 7.03125 -8.59375 C 7.675781 -8.320312 8.222656 -7.957031 8.671875 -7.5 L 7.359375 -5.9375 C 7.066406 -6.300781 6.71875 -6.585938 6.3125 -6.796875 C 5.914062 -7.003906 5.515625 -7.109375 5.109375 -7.109375 C 4.398438 -7.109375 3.804688 -6.859375 3.328125 -6.359375 C 2.859375 -5.859375 2.625 -5.242188 2.625 -4.515625 C 2.625 -3.765625 2.859375 -3.140625 3.328125 -2.640625 C 3.804688 -2.140625 4.398438 -1.890625 5.109375 -1.890625 C 5.484375 -1.890625 5.875 -1.984375 6.28125 -2.171875 C 6.6875 -2.359375 7.046875 -2.613281 7.359375 -2.9375 L 8.6875 -1.53125 C 8.195312 -1.039062 7.625 -0.644531 6.96875 -0.34375 C 6.3125 -0.0390625 5.65625 0.109375 5 0.109375 C 3.65625 0.109375 2.535156 -0.328125 1.640625 -1.203125 C 0.753906 -2.085938 0.3125 -3.179688 0.3125 -4.484375 C 0.3125 -5.765625 0.765625 -6.835938 1.671875 -7.703125 C 2.578125 -8.566406 3.710938 -9 5.078125 -9 Z M 5.078125 -9 "/></g></g></g><g fill="#5271ff" fill-opacity="1"><g transform="translate(198.493618, 273.264006)"><g><path d="M 3.15625 -1.90625 L 6.953125 -1.90625 L 6.953125 0 L 0.890625 0 L 0.890625 -8.921875 L 3.15625 -8.921875 Z M 3.15625 -1.90625 "/></g></g></g><g fill="#5271ff" fill-opacity="1"><g transform="translate(206.386556, 273.264006)"><g><path d="M 6.828125 -1.640625 L 2.921875 -1.640625 L 2.265625 0 L -0.0625 0 L 3.78125 -8.921875 L 6.125 -8.921875 L 9.875 0 L 7.453125 0 Z M 6.15625 -3.359375 L 4.890625 -6.671875 L 3.578125 -3.359375 Z M 6.15625 -3.359375 "/></g></g></g><g fill="#5271ff" fill-opacity="1"><g transform="translate(216.956988, 273.264006)"><g><path d="M 4.328125 -9.03125 C 5.660156 -9.03125 6.832031 -8.695312 7.84375 -8.03125 L 6.984375 -6.265625 C 6.515625 -6.535156 6.007812 -6.753906 5.46875 -6.921875 C 4.9375 -7.097656 4.488281 -7.1875 4.125 -7.1875 C 3.476562 -7.1875 3.15625 -6.972656 3.15625 -6.546875 C 3.15625 -6.265625 3.316406 -6.035156 3.640625 -5.859375 C 3.960938 -5.691406 4.351562 -5.546875 4.8125 -5.421875 C 5.28125 -5.296875 5.742188 -5.144531 6.203125 -4.96875 C 6.660156 -4.800781 7.050781 -4.519531 7.375 -4.125 C 7.695312 -3.738281 7.859375 -3.25 7.859375 -2.65625 C 7.859375 -1.789062 7.523438 -1.117188 6.859375 -0.640625 C 6.191406 -0.160156 5.335938 0.078125 4.296875 0.078125 C 3.554688 0.078125 2.820312 -0.046875 2.09375 -0.296875 C 1.375 -0.554688 0.75 -0.90625 0.21875 -1.34375 L 1.09375 -3.09375 C 1.539062 -2.707031 2.070312 -2.390625 2.6875 -2.140625 C 3.300781 -1.890625 3.847656 -1.765625 4.328125 -1.765625 C 4.691406 -1.765625 4.972656 -1.828125 5.171875 -1.953125 C 5.378906 -2.085938 5.484375 -2.28125 5.484375 -2.53125 C 5.484375 -2.78125 5.363281 -2.988281 5.125 -3.15625 C 4.894531 -3.320312 4.601562 -3.441406 4.25 -3.515625 C 3.90625 -3.597656 3.53125 -3.707031 3.125 -3.84375 C 2.71875 -3.976562 2.335938 -4.125 1.984375 -4.28125 C 1.640625 -4.445312 1.347656 -4.707031 1.109375 -5.0625 C 0.878906 -5.414062 0.765625 -5.84375 0.765625 -6.34375 C 0.765625 -7.15625 1.085938 -7.804688 1.734375 -8.296875 C 2.390625 -8.785156 3.253906 -9.03125 4.328125 -9.03125 Z M 4.328125 -9.03125 "/></g></g></g><g fill="#5271ff" fill-opacity="1"><g transform="translate(225.920921, 273.264006)"><g><path d="M 9.125 0 L 6.859375 0 L 6.859375 -3.46875 L 3.15625 -3.46875 L 3.15625 0 L 0.890625 0 L 0.890625 -8.921875 L 3.15625 -8.921875 L 3.15625 -5.25 L 6.859375 -5.25 L 6.859375 -8.921875 L 9.125 -8.921875 Z M 9.125 0 "/></g></g></g></svg>